<mxfile host="app.diagrams.net" modified="2023-05-09T14:47:08.203Z" agent="Mozilla/5.0 (Windows NT 10.0; Win64; x64) AppleWebKit/537.36 (KHTML, like Gecko) Chrome/113.0.0.0 Safari/537.36" etag="AMQvYHhDl9TnOjYBj9G2" version="21.2.3" type="device">
  <diagram name="페이지-1" id="783F8M1LgvosOZoQXzSf">
    <mxGraphModel dx="1434" dy="796" grid="1" gridSize="10" guides="1" tooltips="1" connect="1" arrows="1" fold="1" page="1" pageScale="1" pageWidth="1169" pageHeight="1654" math="0" shadow="0">
      <root>
        <mxCell id="0" />
        <mxCell id="1" parent="0" />
        <mxCell id="uu5mNnQ9RVdwmoj0D4yL-40" value="DB" style="shape=cylinder3;whiteSpace=wrap;html=1;boundedLbl=1;backgroundOutline=1;size=15;fillColor=#e1d5e7;strokeColor=#9673a6;" parent="1" vertex="1">
          <mxGeometry x="390" y="973" width="310" height="128" as="geometry" />
        </mxCell>
        <mxCell id="uu5mNnQ9RVdwmoj0D4yL-43" style="edgeStyle=orthogonalEdgeStyle;rounded=0;orthogonalLoop=1;jettySize=auto;html=1;exitX=0.5;exitY=1;exitDx=0;exitDy=0;" parent="1" source="uu5mNnQ9RVdwmoj0D4yL-39" target="uu5mNnQ9RVdwmoj0D4yL-40" edge="1">
          <mxGeometry relative="1" as="geometry" />
        </mxCell>
        <mxCell id="uu5mNnQ9RVdwmoj0D4yL-39" value="" style="rounded=0;whiteSpace=wrap;html=1;fillColor=#d5e8d4;strokeColor=#82b366;" parent="1" vertex="1">
          <mxGeometry x="110" y="799.5" width="870" height="115" as="geometry" />
        </mxCell>
        <mxCell id="uu5mNnQ9RVdwmoj0D4yL-42" style="edgeStyle=orthogonalEdgeStyle;rounded=0;orthogonalLoop=1;jettySize=auto;html=1;exitX=0.5;exitY=1;exitDx=0;exitDy=0;entryX=0.5;entryY=0;entryDx=0;entryDy=0;" parent="1" source="uu5mNnQ9RVdwmoj0D4yL-38" target="uu5mNnQ9RVdwmoj0D4yL-39" edge="1">
          <mxGeometry relative="1" as="geometry" />
        </mxCell>
        <mxCell id="uu5mNnQ9RVdwmoj0D4yL-38" value="" style="rounded=0;whiteSpace=wrap;html=1;fillColor=#dae8fc;strokeColor=#6c8ebf;" parent="1" vertex="1">
          <mxGeometry x="110" y="646.5" width="870" height="115" as="geometry" />
        </mxCell>
        <mxCell id="uu5mNnQ9RVdwmoj0D4yL-41" style="edgeStyle=orthogonalEdgeStyle;rounded=0;orthogonalLoop=1;jettySize=auto;html=1;exitX=0.5;exitY=1;exitDx=0;exitDy=0;" parent="1" source="uu5mNnQ9RVdwmoj0D4yL-37" target="uu5mNnQ9RVdwmoj0D4yL-38" edge="1">
          <mxGeometry relative="1" as="geometry" />
        </mxCell>
        <mxCell id="uu5mNnQ9RVdwmoj0D4yL-37" value="" style="rounded=0;whiteSpace=wrap;html=1;fillColor=#f8cecc;strokeColor=#b85450;" parent="1" vertex="1">
          <mxGeometry x="110" y="512.5" width="870" height="115" as="geometry" />
        </mxCell>
        <mxCell id="RLbRWgZVpxSIJji3FO8L-2" value="Member" style="swimlane;whiteSpace=wrap;html=1;" parent="1" vertex="1">
          <mxGeometry x="170" y="140" width="140" height="110" as="geometry">
            <mxRectangle x="480" y="310" width="140" height="30" as="alternateBounds" />
          </mxGeometry>
        </mxCell>
        <mxCell id="RLbRWgZVpxSIJji3FO8L-8" value="id : String&lt;br&gt;address : String&lt;br&gt;phoneNumber: String&lt;br&gt;orders : List" style="whiteSpace=wrap;html=1;align=left;verticalAlign=top;" parent="RLbRWgZVpxSIJji3FO8L-2" vertex="1">
          <mxGeometry y="20" width="140" height="90" as="geometry" />
        </mxCell>
        <mxCell id="RLbRWgZVpxSIJji3FO8L-9" value="Order" style="swimlane;whiteSpace=wrap;html=1;" parent="1" vertex="1">
          <mxGeometry x="170" y="320" width="140" height="110" as="geometry">
            <mxRectangle x="480" y="310" width="140" height="30" as="alternateBounds" />
          </mxGeometry>
        </mxCell>
        <mxCell id="RLbRWgZVpxSIJji3FO8L-10" value="id : Long&lt;br&gt;member : Member&lt;br&gt;orderItems : List&lt;br&gt;orderDate : Date" style="whiteSpace=wrap;html=1;align=left;verticalAlign=top;" parent="RLbRWgZVpxSIJji3FO8L-9" vertex="1">
          <mxGeometry y="20" width="140" height="90" as="geometry" />
        </mxCell>
        <mxCell id="RLbRWgZVpxSIJji3FO8L-12" value="" style="endArrow=none;html=1;rounded=0;entryX=0.5;entryY=1;entryDx=0;entryDy=0;exitX=0.5;exitY=0;exitDx=0;exitDy=0;" parent="1" source="RLbRWgZVpxSIJji3FO8L-9" target="RLbRWgZVpxSIJji3FO8L-8" edge="1">
          <mxGeometry width="50" height="50" relative="1" as="geometry">
            <mxPoint x="320" y="400" as="sourcePoint" />
            <mxPoint x="370" y="350" as="targetPoint" />
          </mxGeometry>
        </mxCell>
        <mxCell id="RLbRWgZVpxSIJji3FO8L-13" value="1" style="text;html=1;align=center;verticalAlign=middle;resizable=0;points=[];autosize=1;strokeColor=none;fillColor=none;" parent="1" vertex="1">
          <mxGeometry x="215" y="248" width="30" height="30" as="geometry" />
        </mxCell>
        <mxCell id="RLbRWgZVpxSIJji3FO8L-14" value="*" style="text;html=1;align=center;verticalAlign=middle;resizable=0;points=[];autosize=1;strokeColor=none;fillColor=none;" parent="1" vertex="1">
          <mxGeometry x="215" y="298" width="30" height="30" as="geometry" />
        </mxCell>
        <mxCell id="RLbRWgZVpxSIJji3FO8L-15" value="OrderItem" style="swimlane;whiteSpace=wrap;html=1;" parent="1" vertex="1">
          <mxGeometry x="430" y="321" width="140" height="110" as="geometry">
            <mxRectangle x="480" y="310" width="140" height="30" as="alternateBounds" />
          </mxGeometry>
        </mxCell>
        <mxCell id="RLbRWgZVpxSIJji3FO8L-16" value="id : Long&lt;br&gt;order : Order&lt;br&gt;item : Item&lt;br&gt;count : int" style="whiteSpace=wrap;html=1;align=left;verticalAlign=top;" parent="RLbRWgZVpxSIJji3FO8L-15" vertex="1">
          <mxGeometry y="20" width="140" height="90" as="geometry" />
        </mxCell>
        <mxCell id="RLbRWgZVpxSIJji3FO8L-18" value="1" style="text;html=1;align=center;verticalAlign=middle;resizable=0;points=[];autosize=1;strokeColor=none;fillColor=none;" parent="1" vertex="1">
          <mxGeometry x="310" y="351" width="30" height="30" as="geometry" />
        </mxCell>
        <mxCell id="RLbRWgZVpxSIJji3FO8L-19" value="*" style="text;html=1;align=center;verticalAlign=middle;resizable=0;points=[];autosize=1;strokeColor=none;fillColor=none;" parent="1" vertex="1">
          <mxGeometry x="400" y="351" width="30" height="30" as="geometry" />
        </mxCell>
        <mxCell id="RLbRWgZVpxSIJji3FO8L-21" value="Item" style="swimlane;whiteSpace=wrap;html=1;" parent="1" vertex="1">
          <mxGeometry x="690" y="322" width="140" height="110" as="geometry">
            <mxRectangle x="480" y="310" width="140" height="30" as="alternateBounds" />
          </mxGeometry>
        </mxCell>
        <mxCell id="RLbRWgZVpxSIJji3FO8L-22" value="id : Long&lt;br&gt;name : String&lt;br&gt;price : int&lt;br&gt;remainQty : int&lt;br&gt;category : Category" style="whiteSpace=wrap;html=1;align=left;verticalAlign=top;" parent="RLbRWgZVpxSIJji3FO8L-21" vertex="1">
          <mxGeometry y="20" width="140" height="90" as="geometry" />
        </mxCell>
        <mxCell id="RLbRWgZVpxSIJji3FO8L-25" value="*" style="text;html=1;align=center;verticalAlign=middle;resizable=0;points=[];autosize=1;strokeColor=none;fillColor=none;" parent="1" vertex="1">
          <mxGeometry x="570" y="350" width="30" height="30" as="geometry" />
        </mxCell>
        <mxCell id="RLbRWgZVpxSIJji3FO8L-26" value="1" style="text;html=1;align=center;verticalAlign=middle;resizable=0;points=[];autosize=1;strokeColor=none;fillColor=none;" parent="1" vertex="1">
          <mxGeometry x="660" y="350" width="30" height="30" as="geometry" />
        </mxCell>
        <mxCell id="RLbRWgZVpxSIJji3FO8L-27" value="Category" style="swimlane;whiteSpace=wrap;html=1;" parent="1" vertex="1">
          <mxGeometry x="700" y="140" width="140" height="110" as="geometry">
            <mxRectangle x="480" y="310" width="140" height="30" as="alternateBounds" />
          </mxGeometry>
        </mxCell>
        <mxCell id="RLbRWgZVpxSIJji3FO8L-28" value="id : Long&lt;br&gt;name : String&lt;br&gt;items : List" style="whiteSpace=wrap;html=1;align=left;verticalAlign=top;" parent="RLbRWgZVpxSIJji3FO8L-27" vertex="1">
          <mxGeometry y="20" width="140" height="90" as="geometry" />
        </mxCell>
        <mxCell id="RLbRWgZVpxSIJji3FO8L-32" value="" style="endArrow=none;html=1;rounded=0;entryX=0.5;entryY=1;entryDx=0;entryDy=0;exitX=0.5;exitY=0;exitDx=0;exitDy=0;" parent="1" edge="1">
          <mxGeometry width="50" height="50" relative="1" as="geometry">
            <mxPoint x="765" y="322" as="sourcePoint" />
            <mxPoint x="765" y="252" as="targetPoint" />
          </mxGeometry>
        </mxCell>
        <mxCell id="RLbRWgZVpxSIJji3FO8L-33" value="1" style="text;html=1;align=center;verticalAlign=middle;resizable=0;points=[];autosize=1;strokeColor=none;fillColor=none;" parent="1" vertex="1">
          <mxGeometry x="740" y="250" width="30" height="30" as="geometry" />
        </mxCell>
        <mxCell id="RLbRWgZVpxSIJji3FO8L-34" value="*" style="text;html=1;align=center;verticalAlign=middle;resizable=0;points=[];autosize=1;strokeColor=none;fillColor=none;" parent="1" vertex="1">
          <mxGeometry x="740" y="300" width="30" height="30" as="geometry" />
        </mxCell>
        <mxCell id="RLbRWgZVpxSIJji3FO8L-38" value="" style="endArrow=none;html=1;rounded=0;" parent="1" edge="1">
          <mxGeometry width="50" height="50" relative="1" as="geometry">
            <mxPoint x="310" y="375.83" as="sourcePoint" />
            <mxPoint x="430" y="375.83" as="targetPoint" />
          </mxGeometry>
        </mxCell>
        <mxCell id="RLbRWgZVpxSIJji3FO8L-39" value="" style="endArrow=none;html=1;rounded=0;" parent="1" edge="1">
          <mxGeometry width="50" height="50" relative="1" as="geometry">
            <mxPoint x="570" y="374.83" as="sourcePoint" />
            <mxPoint x="690" y="374.83" as="targetPoint" />
          </mxGeometry>
        </mxCell>
        <mxCell id="uu5mNnQ9RVdwmoj0D4yL-6" value="CategoryDAO" style="rounded=0;whiteSpace=wrap;html=1;" parent="1" vertex="1">
          <mxGeometry x="150" y="827" width="140" height="60" as="geometry" />
        </mxCell>
        <mxCell id="uu5mNnQ9RVdwmoj0D4yL-7" value="ItemDAO" style="rounded=0;whiteSpace=wrap;html=1;" parent="1" vertex="1">
          <mxGeometry x="320" y="827" width="140" height="60" as="geometry" />
        </mxCell>
        <mxCell id="uu5mNnQ9RVdwmoj0D4yL-8" value="MemberDAO" style="rounded=0;whiteSpace=wrap;html=1;" parent="1" vertex="1">
          <mxGeometry x="480" y="827" width="140" height="60" as="geometry" />
        </mxCell>
        <mxCell id="uu5mNnQ9RVdwmoj0D4yL-9" value="OrderItemDAO" style="rounded=0;whiteSpace=wrap;html=1;" parent="1" vertex="1">
          <mxGeometry x="650" y="827" width="140" height="60" as="geometry" />
        </mxCell>
        <mxCell id="uu5mNnQ9RVdwmoj0D4yL-10" value="OrderDAO" style="rounded=0;whiteSpace=wrap;html=1;" parent="1" vertex="1">
          <mxGeometry x="820" y="827" width="140" height="60" as="geometry" />
        </mxCell>
        <mxCell id="uu5mNnQ9RVdwmoj0D4yL-11" value="Category Service" style="rounded=0;whiteSpace=wrap;html=1;" parent="1" vertex="1">
          <mxGeometry x="150" y="674" width="140" height="60" as="geometry" />
        </mxCell>
        <mxCell id="uu5mNnQ9RVdwmoj0D4yL-15" value="ItemService" style="rounded=0;whiteSpace=wrap;html=1;" parent="1" vertex="1">
          <mxGeometry x="320" y="674" width="140" height="60" as="geometry" />
        </mxCell>
        <mxCell id="uu5mNnQ9RVdwmoj0D4yL-19" value="CategoryController" style="rounded=0;whiteSpace=wrap;html=1;" parent="1" vertex="1">
          <mxGeometry x="150" y="540" width="140" height="60" as="geometry" />
        </mxCell>
        <mxCell id="uu5mNnQ9RVdwmoj0D4yL-20" value="ItemController" style="rounded=0;whiteSpace=wrap;html=1;" parent="1" vertex="1">
          <mxGeometry x="320" y="540" width="140" height="60" as="geometry" />
        </mxCell>
        <mxCell id="uu5mNnQ9RVdwmoj0D4yL-32" value="MemberService" style="rounded=0;whiteSpace=wrap;html=1;" parent="1" vertex="1">
          <mxGeometry x="490" y="674" width="140" height="60" as="geometry" />
        </mxCell>
        <mxCell id="uu5mNnQ9RVdwmoj0D4yL-34" value="MemberController" style="rounded=0;whiteSpace=wrap;html=1;" parent="1" vertex="1">
          <mxGeometry x="490" y="540" width="140" height="60" as="geometry" />
        </mxCell>
        <mxCell id="uu5mNnQ9RVdwmoj0D4yL-35" value="OrderService" style="rounded=0;whiteSpace=wrap;html=1;" parent="1" vertex="1">
          <mxGeometry x="740" y="674" width="140" height="60" as="geometry" />
        </mxCell>
        <mxCell id="uu5mNnQ9RVdwmoj0D4yL-36" value="OrderController" style="rounded=0;whiteSpace=wrap;html=1;" parent="1" vertex="1">
          <mxGeometry x="740" y="540" width="140" height="60" as="geometry" />
        </mxCell>
        <mxCell id="uu5mNnQ9RVdwmoj0D4yL-44" value="DTO" style="rounded=0;whiteSpace=wrap;html=1;fillColor=#fff2cc;strokeColor=#d6b656;" parent="1" vertex="1">
          <mxGeometry x="1040" y="530" width="110" height="180" as="geometry" />
        </mxCell>
        <mxCell id="uu5mNnQ9RVdwmoj0D4yL-45" value="&lt;b&gt;Presentation Layer&lt;/b&gt;" style="text;html=1;align=center;verticalAlign=middle;resizable=0;points=[];autosize=1;strokeColor=none;fillColor=none;" parent="1" vertex="1">
          <mxGeometry x="110" y="510" width="130" height="30" as="geometry" />
        </mxCell>
        <mxCell id="uu5mNnQ9RVdwmoj0D4yL-46" value="&lt;b&gt;Business Layer&lt;/b&gt;" style="text;html=1;align=center;verticalAlign=middle;resizable=0;points=[];autosize=1;strokeColor=none;fillColor=none;" parent="1" vertex="1">
          <mxGeometry x="120" y="646.5" width="110" height="30" as="geometry" />
        </mxCell>
        <mxCell id="uu5mNnQ9RVdwmoj0D4yL-47" value="&lt;b&gt;Persistence Layer&lt;/b&gt;" style="text;html=1;align=center;verticalAlign=middle;resizable=0;points=[];autosize=1;strokeColor=none;fillColor=none;" parent="1" vertex="1">
          <mxGeometry x="110" y="799.5" width="130" height="30" as="geometry" />
        </mxCell>
        <mxCell id="uu5mNnQ9RVdwmoj0D4yL-50" value="" style="endArrow=classic;startArrow=classic;html=1;rounded=0;" parent="1" edge="1">
          <mxGeometry width="50" height="50" relative="1" as="geometry">
            <mxPoint x="980" y="571.38" as="sourcePoint" />
            <mxPoint x="1040" y="571.38" as="targetPoint" />
          </mxGeometry>
        </mxCell>
        <mxCell id="uu5mNnQ9RVdwmoj0D4yL-51" value="" style="endArrow=classic;startArrow=classic;html=1;rounded=0;" parent="1" edge="1">
          <mxGeometry width="50" height="50" relative="1" as="geometry">
            <mxPoint x="980" y="685.5" as="sourcePoint" />
            <mxPoint x="1040" y="685.5" as="targetPoint" />
          </mxGeometry>
        </mxCell>
        <mxCell id="uu5mNnQ9RVdwmoj0D4yL-52" value="Entity" style="rounded=0;whiteSpace=wrap;html=1;fillColor=#ffe6cc;strokeColor=#d79b00;" parent="1" vertex="1">
          <mxGeometry x="1040" y="720" width="110" height="180" as="geometry" />
        </mxCell>
        <mxCell id="uu5mNnQ9RVdwmoj0D4yL-53" value="" style="endArrow=classic;startArrow=classic;html=1;rounded=0;" parent="1" edge="1">
          <mxGeometry width="50" height="50" relative="1" as="geometry">
            <mxPoint x="980" y="856.5" as="sourcePoint" />
            <mxPoint x="1040" y="856.5" as="targetPoint" />
          </mxGeometry>
        </mxCell>
        <mxCell id="uu5mNnQ9RVdwmoj0D4yL-55" value="" style="endArrow=classic;startArrow=classic;html=1;rounded=0;" parent="1" edge="1">
          <mxGeometry width="50" height="50" relative="1" as="geometry">
            <mxPoint x="980" y="740" as="sourcePoint" />
            <mxPoint x="1040" y="740" as="targetPoint" />
          </mxGeometry>
        </mxCell>
        <mxCell id="wu-v3GwsSAGnacMAZzud-13" style="edgeStyle=orthogonalEdgeStyle;rounded=0;orthogonalLoop=1;jettySize=auto;html=1;exitX=1;exitY=0.5;exitDx=0;exitDy=0;entryX=0;entryY=0.5;entryDx=0;entryDy=0;" edge="1" parent="1" source="wu-v3GwsSAGnacMAZzud-4" target="wu-v3GwsSAGnacMAZzud-6">
          <mxGeometry relative="1" as="geometry" />
        </mxCell>
        <mxCell id="wu-v3GwsSAGnacMAZzud-4" value="" style="rounded=0;whiteSpace=wrap;html=1;fillColor=#f8cecc;strokeColor=#b85450;" vertex="1" parent="1">
          <mxGeometry x="70" y="1216.5" width="220" height="115" as="geometry" />
        </mxCell>
        <mxCell id="wu-v3GwsSAGnacMAZzud-5" value="ShortenUrlController" style="rounded=0;whiteSpace=wrap;html=1;" vertex="1" parent="1">
          <mxGeometry x="110" y="1244" width="140" height="60" as="geometry" />
        </mxCell>
        <mxCell id="wu-v3GwsSAGnacMAZzud-12" style="edgeStyle=orthogonalEdgeStyle;rounded=0;orthogonalLoop=1;jettySize=auto;html=1;exitX=1;exitY=0.5;exitDx=0;exitDy=0;entryX=0;entryY=0.5;entryDx=0;entryDy=0;" edge="1" parent="1" source="wu-v3GwsSAGnacMAZzud-6" target="wu-v3GwsSAGnacMAZzud-8">
          <mxGeometry relative="1" as="geometry" />
        </mxCell>
        <mxCell id="wu-v3GwsSAGnacMAZzud-21" style="edgeStyle=orthogonalEdgeStyle;rounded=0;orthogonalLoop=1;jettySize=auto;html=1;exitX=0.5;exitY=1;exitDx=0;exitDy=0;entryX=0.5;entryY=0;entryDx=0;entryDy=0;" edge="1" parent="1" source="wu-v3GwsSAGnacMAZzud-6" target="wu-v3GwsSAGnacMAZzud-20">
          <mxGeometry relative="1" as="geometry" />
        </mxCell>
        <mxCell id="wu-v3GwsSAGnacMAZzud-25" style="edgeStyle=orthogonalEdgeStyle;rounded=0;orthogonalLoop=1;jettySize=auto;html=1;exitX=1;exitY=1;exitDx=0;exitDy=0;entryX=0;entryY=0.5;entryDx=0;entryDy=0;" edge="1" parent="1" source="wu-v3GwsSAGnacMAZzud-6" target="wu-v3GwsSAGnacMAZzud-14">
          <mxGeometry relative="1" as="geometry" />
        </mxCell>
        <mxCell id="wu-v3GwsSAGnacMAZzud-6" value="" style="rounded=0;whiteSpace=wrap;html=1;fillColor=#dae8fc;strokeColor=#6c8ebf;" vertex="1" parent="1">
          <mxGeometry x="350" y="1216.5" width="220" height="115" as="geometry" />
        </mxCell>
        <mxCell id="wu-v3GwsSAGnacMAZzud-7" value="ShortenUrlService" style="rounded=0;whiteSpace=wrap;html=1;" vertex="1" parent="1">
          <mxGeometry x="390" y="1244" width="140" height="60" as="geometry" />
        </mxCell>
        <mxCell id="wu-v3GwsSAGnacMAZzud-11" style="edgeStyle=orthogonalEdgeStyle;rounded=0;orthogonalLoop=1;jettySize=auto;html=1;exitX=1;exitY=0.5;exitDx=0;exitDy=0;" edge="1" parent="1" source="wu-v3GwsSAGnacMAZzud-8" target="wu-v3GwsSAGnacMAZzud-10">
          <mxGeometry relative="1" as="geometry" />
        </mxCell>
        <mxCell id="wu-v3GwsSAGnacMAZzud-8" value="" style="rounded=0;whiteSpace=wrap;html=1;fillColor=#d5e8d4;strokeColor=#82b366;" vertex="1" parent="1">
          <mxGeometry x="670" y="1216.5" width="220" height="115" as="geometry" />
        </mxCell>
        <mxCell id="wu-v3GwsSAGnacMAZzud-9" value="ShortenUrlDAO" style="rounded=0;whiteSpace=wrap;html=1;" vertex="1" parent="1">
          <mxGeometry x="710" y="1244" width="140" height="60" as="geometry" />
        </mxCell>
        <mxCell id="wu-v3GwsSAGnacMAZzud-10" value="DB" style="shape=cylinder3;whiteSpace=wrap;html=1;boundedLbl=1;backgroundOutline=1;size=15;fillColor=#e1d5e7;strokeColor=#9673a6;" vertex="1" parent="1">
          <mxGeometry x="1010" y="1210" width="120" height="128" as="geometry" />
        </mxCell>
        <mxCell id="wu-v3GwsSAGnacMAZzud-14" value="" style="shape=image;verticalLabelPosition=bottom;labelBackgroundColor=default;verticalAlign=top;aspect=fixed;imageAspect=0;image=data:image/png,iVBORw0KGgoAAAANSUhEUgAAAPEAAABjCAYAAABKZeZBAAAYj0lEQVR4nO2deXQcR53Hv9XHTI9G9zE6LPnAtmTZlq/gGMfOjZ3YxDIscYKzCYQNS3YfvGTZxz6uLGEhj7BAgBdwgASIE0hCEiBh4/jKge04PokPfMiWbCuydVqjYzTSHD197B89p6bnlOaQVJ/35r2Znqru0qi/Vb/6/X5VTXJf/5KKiQ7Hghi4TLciFEWFOuIGht1Aun9hI5vmC3ohBGAZgCGZuX40DBn6TSKhqoDDo90j6thukCy78ycRDAHJEwCzAeqwGxgR0y/mdEEAsGx2ijdbIQQwG0BMPOAQoTqS7+ypiFMNw4DkmwCzEardDTjETLdo/CAEYAnAMJluycSFIUCu0StmjybmBKEiThcsA1JogmrmgWERcHoy3aLkoSPv+MMyQJ4xMDI74+/sqYjTDOE5oIiDapa0+bJLynST4odAG3VZOvKmDI4B8gWQHAMw4obqit3ZUxFnCGLggGIOqtujidktZ7pJ0WGpeNMKxwAFJhCzEbC7oYqRxUxFnGGIkQeMPFSXCNjdgEfJdJNCoeLNLBwDFJlARAMw7IbqCbfcqIizBCIYAMEA1SFqI7OUYTFT8WYXBhYozgFxa9MwVQpYblTEWQbJMQAmPiBmOc1xKSre7MbIAUYOxOXRoh2KQkWclRCizYVyvCOz3Q0oKRYzFe/EQuBBjBzgkqiIsxqfmE2G1GV/UfFOXAgBTDwV8YRgvLO/VGjC5ah4JwNUxBOJ0dlfziTEzBAtUSOdeRqSQjuMFEJFPBHxZ39pYYeY2V8qtPRILkOLAEbcmogFnpruKYCKeAJDeBYoyome/ZWJkVcPSdHayLOah5WKedygIp4EhGV/AV7xMprzI5vwyNqLZ7WRmeZfjxkq4klESPaXrKY+LDUWfGI2aHFPKubkoSKehBDBAKgqVJ9QslnMogR4pICYs81ymABQEU9WCNHMbJ6FKkranDRbxawCcEuaoI28lmJIxRw3VMSTHUI0M9ugasnzojLm7WBShgrA5dEEbeSomOOEiniqQAiIgQc4r5g92SxmVROz6BMzvU2jQf38Uw1GG5lJjgHgmcyHnqKhqFoM3O7S5vYUXWgXN1VhiOYAUxSobgmQlezdyE9Rtb3JWG/CCM3+CoH+GlMdhgExGbSROdvFISta9teIW3tPARHoAgiKD6+YISsBb3a2QrO/NGelN1mGipgSCsuACDxUWdEcS+nelCARpmD2FzFwgIkP2SaYipgSDiEgHAuwDFRZBkR5Yoh5Emd/6YnXBxUxJTKEgHAcwLLank4izf5KN4RnNfGykVegURFTYkOItl82NwHEPFmyv1jG62yMvXyUipgSP8Fizva87NHZX3wWrujSgyUgOcaE1n5TEVMSJzgv25f9lbVi9mZ/AYCgtTkrYYg3ASdxSVIRU5LHl8rJq9m/yELRHiUKRtLmmNkSEyc+8SZv9lMRU8aOb5EFPwHyshVV22iQJZnN/iJEe3iaYewOOCpiyvjB+MQclDCSpVqG7BUzx2hz5nSJmXjXe4+j95yKmDL+MIw3L1vVHgRGkL1ilhRA8opZSG32FzFpO6+Mt4ONipiSOryLLFRB1ExsKYtXIkmK9txoAwsY2XF9cDoRvOJNURIKFTEl9bCMdgPzjBaWyua8bNEbBzey2nx1DMILzm9OJVTElPRAiOZMYgjAq9kvZresvYycJugETOBoKZKpgIqYkl5Gi1mUs3tZoT/7K/Z2QcTAZWSDfCpiSmbwiVkgmqfYk8ViVqFtzO+WNJGOyv6KJ785lVARUzILIQDnFbSkaK9sFrPTA7iJ5skW+Ljzm1MJFfEkJ5c14tq86fiIqRT5rBGEAHZJxIfufhwduowByZHpJmoQomUtcYwm5BTmZRsZDnNyLf7PClQ0DXXFrCcwHGbnWrzxcE7zOAus33xWAbhVGb0eO4ZkMeq57iisRzGXAwA46ejESUfs60eCiniSUsTl4Fsz1+DOssUQGF63jEeRsaOvCY+27UCXeyjNLYyAT8xskJjHOfvrE1WL8cvl94UcW/3W99EyfDVqvQVF1dh+w3/EdY1WVz9e6D+GX109DEkNtyy+UrEaC0wVAIAfde0dk4izJIGUMp6U8WbsWPxF3Fv+0YgCBgCeYdFYthC7Fv07ZhmL09jCOGCI5kgap9TEYBqrl4Qd21izNHIFQoAcHjAZ4r7GLKEYj1R9HE/N+FQyTUyIlI7Er678ou7xR89uw1lbZ8ixu2quwabqa8LKvnj5CF7rOKF7npqcIvxk8SbtRyah/ZFDcuNfTr8IxduL/7x+E8qFvLBz7O1vwZa298KOP1izEreW1ocd7xdH8G9nXsY359yGJXnTdNulx1Nt+7Cn/wJqc8rwWN2GyAVVFQ5ZRLdnCOftvXjXeh5t7oG4rwMAP5z9ScwUSvyfzzt68GZfE644B6BCRZWxALeV1GNxbhUAwGLIxZa6TVj/j18ndJ204BMzx2jJImPMy87ljLjZMg8AoKgqGG/nsHHaUvy4aVdoYYJQr/SofmRPXzMccuCxsgLLYZpQiFqzBcRbuLFoPn5rPYLDw1eSbnMsUiri60pm6x5/cvHdWL//5xCVwKM4q03FuuX39DZHPP9napZHvAYA3Fw8F+/0afUvuXrxqcqGsDKzTMW6Iv5c9QpMN4WPTr/wlp1vtuC6opkRrz2aP3UdA6DdRInU+27tOrx59Qy+cX5bXPPX2UIpbi+u839+uecY/vPC65BH5T3+pH0PHpmxFl+uvh4AsCyvGivzZ+Lg0Idxty2tMEQbkTklkP2VhJZvr2yAwGrWyRudJ3CrpR65vIDavArMyyvHOXtPuHgj8NXm13DFGd7Bri2tx/MNnwXx1r0lf05KRZwRc7o+vwL/VbtmTOdgCYO7qz8atczmysDI/kLH3+FRwtP+KoV8NHhHJB91ORZdAcuqgufbDyfZ4uQghOCO8oV4Zdn9MDKx+9zbS+b5bx6nLOKR1h1hAvbxg7a30SPa/Z/XlYRbHlkHwwTMbD7x5y5vrA6Yza+3H8O7PU3+z401SzXx5hnHtEBht7UJp4cDc9wZbEFKl2hmzLH14OwbsPtqE472J9fz32ypQ6WpIGqZW0trUcbnotczjKviMHZcbUJjxcKwcmvL6nBquDPksx5v9TajM0MOoPrcCtxXtRy/aT8Ytdwic8DEPz7cAbvsilhWgoIDtlZ8qmyRt25oZ1bAmTDHpJnll10D6PWMwEg4rCqYhXpzOXjCosdtx76hi+hw26K2S2A5rC6ei7q8chTwJoiKhCvOAbxnvYBO16BundnmUhTymgf3H0Md/k640lSI64pnY1ZOKQAFJ61teLv9DNQYQ3MeJ+BG7//WKYl4t6cJJsaARq+wN1QvxQ879kQ9R7y0OfvRkKf9nvnEANXmmHwLIFjC4GeLN2HNvifhkN0J199cfW3MMjzD4q6qJdjSth8A8FzHIV0Rrymdhyda/xb0WX9Eeq4j9ij8zJWD6HCG39AnbB1R671jbcbW9sMoNZjxueoVWJIfPt++paQ2poinC0X+9x+6+mO2N7jMDCHU+rgufyaerb8HAPDbrkPoctvw5Wk3oJA3hZSTVQVbOvbj+21v6V7j7mnX4NH6jSgxmsO+k1UFW9sO4Ntn/xrmxX1k3h1YX6FNgTYd/hXyWAFfmLUaK4tn+60NAEAdsL3rFD5/4JmoqZzrqhpgZLVbfm/vebhkCW/1n4NHkcEzLGrN5ajPrUDTcHfEc8TLiBK4p30WlOr0aHNlIbKzMRkyGmKaaS7Ft+evx9dPvZZQPYuQj1vLw0fLvX0XcGPJnJBjm6s+iqfa9kMFcNh2GU3D3ajPrQgpsyCvApXGAnS5bSjlzboCuuiwYv/AxZhte6PnFI4NtSf09wBAp2jD3/pbAADHbFewd+XDYWX0HHOjKeQF/3ubFHkU9jEUVKaQEyKW+3zFCr8TaDQsYfBQ9Q245LDij73HQ777ZFkDnqy9K+RYsEOJJQwemLkaLkXCd5veiHj9Z5fdj1w+cvvWVzZgRWUtDlsvRszL/uS0Zf73O61ngVwDhlgZhwZbcX2xdt80ljWMi4gFEhCqK8j5lQoyHmK6d/oK3BTBfI3Epupl4JnQLBmHLOKJ1nfDys40FWNFYcCRtLX9aFgZAoK1pZrHcm3pPN2b9bn2o3H5Ub4zdx3+sPi+kNcv5t8ZR80AFmO+7nG7J7Yog28eSY299C949Is252YIgVuR8EznQaw98UssPPI47j69NSS+/MVpK0PrgODRGbf7P79nbcH1e/8XVdu/irm7voWftbzt/+6BGatQwIWO8MH4BGwTnfhL5zF879w2vN4VGrVYWjhdiy8bvQsQgnKYC3gTrrfMBaCN/rttLf7vd1qD5sXliyK2IREqhcBUbzDKlGY8yHiyByEEP150J7Z3n4qvPIB7asJN6cMDbTgx1IEB0YkiQ+jN8M+Vy3FoUJt7/6XnBL41ew3yR/Xqa0rr8FzHYXy8NLxDcUgiXu0+Flf7lhXUhB276h6OWW9FwQw8Pm8DChkTbi2t1S1zxHY55nlYkli/7A6KEDCEAQcGEsJHMUlVcPvJX6PJERil9tou4vG2t/Bk7acBAPU5FShgTbDJTgDA8rwaVHo7JLcs4cFjv0efZwSAZgE83rwDt1jmYVFBNQSWx+qSOXizR/8+uOq244mW3Xi5/SicQSPbkpurMTOnFIDm+QcQyMs2Es2h5JGxftoiGLyd1GHbh+gTA/+TndYzeKz2DhAQzMkpw/zcSpwdTj75os5cjmV51f7PrQ5r0ueKh7SLWFQkXBy2oj4/YNJWmvJx74wVcdVfWTIbM80lYcf3D1yAAhXvD1zEHeWh8951lnoUtJhgk5xwyh680n0cX6gJHTVWFs1EKW/G9cXhIas/95yEXUp83p4ItWYLas2WiN/3iQ48c/lAStsAACwhkHRMDkmVQwTs40BQSIoQghpjIWwOTcTzzZX+75rsnX4BB3Ni8DIWFWg3/OxcC9Cj364d3aewtS387+8TR/wiDsMXY87h0Tg9YErv6m0KKdbuGsRpe5ffEdVoaYhLxPdP+xgGxUDYj2dYVJuKsKF0IbggS3FPX+Qw6XiQdhErKvDwyZexbdWX/D0jEN2UC+ae6ct1j+/rbwUAvDdwKUzEAsvh0xVL8DuvU+j5K0fwQPXHQpwjRobDo3PWw8SGOh1UqHjuypG42pYqTtu78dCZV9HriT2iJ8rokdujkyIYja5RXumiIKfXNGPApBwQ9WPcTjlgCZQYwh1fScMx2osQFBvMuL4o4CvZbj0dVnyX9axfxBssDfjBpd0xL/Hl6TfGLPNO33kcHYptQY2FjJjTZ2yd+GnLO/ha3W0J1Svkc7CuIjxhQ1FV3F21FCoAC5+rW3dz1VK/iC+5+rCv/xJuHJUoopcMcmigDeccEYYHHb55fhuaR0JzcKUgkzVR3u49j8+feiHuvAa3EjA14wlk8CQwYoiKBCXBDAoZKiRVBuc9Dx/UGecEdYirS+eiec1jYfUFNlB+dAeaFEHi9bG+dL7fh9LlsqHaWIRqY1FItX5PoJMZD5NaVCS80n0M3255M+lzxEvG5sRbLuzBWks9lhZNj7vOp6uXhvzTfTCEhJnHo6nPrcDSvGoct2ue4+c7DoeJWI+tHYfibh8AnLZ3JuWd7nAOooA3BeZ1Xj5eVoc7K5bg1W791NPRDAeF63LY2Lm+QpDonEl6USVV8YuYC+o6gjsRnmFRYIjsuBoXeFZ3c/gNZYHOuVIowGvL9NOBg9loWRRTxP/Tsh39UugUwa1I6HHbcWq4E/Y4ogPjQcZELKsKHjr5CnZf/3DcPfBmHYdWImyetgzHz2kCe8t6Hu3OQVSbCiOW73bZsXPU/CkWf1xyv+6qlec7j+IHF/XjqADQIw7jx63v4qfz/ynsu8frGtE8chUn7Z06NUPpFYdR77VKy/nYISmLMVCm25N4IgsBQhZZuIM84mLQ73DK1o4nmqObqG3O2HFt/RZEptSQi9XFc6KW0WNjeQMev7Qrapk3rKd00y7TTUa905eGe/H9czvwvQWNMcsuK5oe4gxLho2WBnynZSccsggFKn7feRTfmB05/fOFrqOQE0y2z+H0R7945vyvdp/AzcVz0ThqyiCwHH7TcA/WHf0lrDrOoWBaXFbcAO2mnW+O/XstyAmUaUnCi5rHhnr5hySn/701yAM85HFix9UzCZ8/Ij6zOcYmdOvKFoDzzvut4gh++GHkjrTaWIiHZtwEAJhlKkVD3jScskdP0skGMh5ierb1fdxWvgCrS6Obtptr9B1abY4+/Ovxl0J2VzBzHP687Ath8V4zZ8RGy0K85F2M8FLnB/jKrJt0l+t5FBkvdPw90T9nzHy9+Q1cU1CDaaMshEohH083fAZ3HX9Wd6T38b6tFQ9UfgwAMMtUglUFs/C+rVW3bJ3JgmvzA9OZAxHKRWNeTqhHvUMMOLquiIF0ylm5ZQmfWxedOW80GssCTs6d1jN4rj3y9IgjDO6rvBZFBi3Vs9HSMCFEnPFkDxXAV06+EjWRwcwZsbFqse53f+tpxhl7J86OdPlfR21XcNquP5/ZXBVYFNHvcWBb91ndcjuunsVVcfy9wbEYklx4+OyfIesI9drCGfhe7fqo9d/pPx8yWj9d9xlsLF0IQ5ADiwXBrUW1+MP8e/3eaacs4q99kWP1BFryRugxggerrvN/bncNhvxmR4YuQ/VaMlVCIT6h45T0McNUouvv8MOQwAPR4hSwxZiHVUWBwWFHr/7/2oekKni7/5z/8wZLeIpuNpLSkfjOg+HrU1Ud87TTOYg73t+CMmO4Z/myox8MYfC5o1t1r9E6om8CPnTmTyjVOR+g3Xy+ZPnHLu7EH7s/CCtzKYZp+diF3f5lifHQ7dJGqGZHL+489ruw74elwHYuh2xt+MTRp5EbwTTnCRMxFORWZfxP6w78vFbLEivhc/DrurshKjJ6RTsUqCgz5IZZH09c2YM+T+SljkaGR9O138BpRxcuuwYgqQqW5VZjQW4gFvxST+jv2Om24e2B81hTrGXDPbPss3jP2oymoW7IUFHAC6gxFaM+rwrlQh5u2vcjNNkjpDwyJOGFA+vLFvg7KbvkwnsDF2LW2dF7FpsqtJjyRDGpUyrig32X4i57YfgqLkTZHiXquXQ2KrvgtOKCM/Ycz+oZgXUw+jxTj3Mj8YedghmW3P7ssWicHo7txIrEq70nUcSZ8d8z1/pDKwaGxTQh3ImnqCp+0b4PWzpid0gFvAmrCj6CVTqLx04Od2JL5/thx792aRvmmSyoMRWDJQxuKpuHm8rm6Z6/ODhOzDFj3re5Mcgr/U5fc0h2WiTe7W+GUxZh8nr2J4JJnfE5MSU1PN11ALv6m3BfxXKsKvgIZgnF/tVHdsmFD139ODTUhhe7P0CTM3aHJKsKdvc3Y7apGDXGQphYAzyKjEsuK/7PegZPdeyHSwkPUXW6bbhl3xN4cNYNuK18IeaYy2DiDJBVBTbRiS63DRdHevEPWzsuDPeGzHmPBSVJnBnRH6EPDl5Cj0vzqrcExecFhsegx4ntXmfai13hOfN6OGURWy7v82ebBVssg1LgfADgkpOP/z/VcxAl3mWWH4yMrZMgua9/KVsfdRU/HKtt3E2JSSLPNltXXO9fiuhSPJh58Lv+7xiQuBND1MFQM123boIOq4kKMRkm11JESvoZrx470cyuiHWniHhTCRUxJTOw8cV5KbGhIqakFyrecYeKmJIeqHhTBhUxJSIqgF5xBJfd/biY7MJ2zrvTBhVvyqAipkRkZ38TdvYntgDED8to2VUMoQJOMVTElPElWLyUtEBFTBkfqHgzBhUxZWxQ8WYcKmJKcrDeR5COMb+ZMnaoiCmJQcWbdVARU+KDijdroSKmRIeKN+uhIqboQ8U7YaAipoRCxTvhoCKmaFDxTlioiKc6VLwTHvqfm6r4do808ikXMMkTQh4zShlf6Eg81fA9KTCdIy/HguSbAI8E1SFqT9WjjBtUxFOFTIh3NDwHks8CogTV6QESfLoGRR8q4slONog3GEIAI69tbOiWoDrF2HUoUaEinqxkm3hHQwggeMUserSRmZIUVMSTjWwX72gYAggGEAMPuDxQ3VTMiUJFPFmYaOIdDUOAHAOIwAFOD1Qx+Y3ZpxpUxBOdiS7e0TAMYDYGxOyRY9eZ4lART1Qmm3hHw7JALgsiyVpYSo78ONepDhXxRGOyi3c0NMYcEyriiQLjTY+cqplPNMYcESribGeqizcYGmPWhYo4W6HijYwvxmzkADeNMVMRZxtUvPFDaIwZADiwDPX8ZQNUvMkzxWPMHCkya86CETcVcyag4h0/pmiMWTOnDZw3h5WKOW1Q8aaOKRZjDp0Th4jZBcjUjT/uUPGmjykSY/5/OJCUBG3oKj0AAAAASUVORK5CYII=;" vertex="1" parent="1">
          <mxGeometry x="930" y="1410" width="146.06" height="60" as="geometry" />
        </mxCell>
        <mxCell id="wu-v3GwsSAGnacMAZzud-16" value="3. Redis/DB에 모두 없으면 &lt;br&gt;단축 URL 서비스 요청 후&lt;br&gt;Redis/DB에 저장" style="text;html=1;align=center;verticalAlign=middle;resizable=0;points=[];autosize=1;strokeColor=none;fillColor=none;" vertex="1" parent="1">
          <mxGeometry x="685" y="1450" width="170" height="60" as="geometry" />
        </mxCell>
        <mxCell id="wu-v3GwsSAGnacMAZzud-20" value="" style="shape=image;verticalLabelPosition=bottom;labelBackgroundColor=default;verticalAlign=top;aspect=fixed;imageAspect=0;image=data:image/png,iVBORw0KGgoAAAANSUhEUgAAAMUAAACwCAYAAAC/16qCAAAgAElEQVR4nOy9d5Bl133n9zk3vdg5TezJAAaDmUGYQSSRCDBzRUnUUl5pS7slWaLolbxW2WVvWa71uuyq9XrL9q6sVdhgcVfSSmRJpAkSIBEIEAARB5icc+zu6fjyu/ee4D/ufa9fz/T0dPe8RvcA/a0CpqfnvRvP95xf/B5RqVQMy1gQ6FKR4OJ5gosX8M+dQ144hxy4hJqYQFdyoC1AIBwXTIDTtQJ7xRrstetIbtpE8s47cbp6sdvaFvtWPlEQy6RoPuT4GOU971E9cpDgzCnk5cvI0RGoVNFBBaMUqBAsZ/JLWiJsDyuZxiQ8nLZW3A0bcfs3ktq+k5ann0G43uLd1CcIy6RoAoxS6HIJNT5K6ScvUXjxh4QDVzCBAikxMsRoBQgEYIS44bGEMRhjQIBwXbBsrHSKxKYNZD//c6Qe/hR2eycimcS27Y/sHj9JWCbFPKG1RlXKqIHL+IcPUtm3F//wPsKLF9CVKkZrhO3ADASY5YnAaBBgZbI4a/pJPvAQqd0Pkdy4EbdvJVYy1ZybWgawTIp5QY6PUXrnZ/inT1Hd/yHhqZPocgnCAKM1WLc2gwtjrl9NjInJIRCeh93dS+KOO0ncfQ/J7feR2rpt2fdoEpZJMVsYjcoXKO3dQ+6v/5zw1AlUfgITSqg9wcaBbAwmqIIxCDcBczR1hJl8LdMSRAiEbYFl4XT3ktr1MNkvfJn0jp1Y6cw8b3IZsEyKGRH4PlYxT/XIQQovvED5zVdRE0NgJRGWXbf94//VYZTEXbuG1L0PICcmCI4dRQ5eAa0RiSQIa8rnG1cG41cwUmK3tGF1dGKqFUyxeGM/xBiEEBijQfu4W7aSfebLpB9+jOT69ditrbe8cn3SsEyKaaArZSoHPqRy5BiV916n8u47GL+K5aWiReFmfoIxWF6Crm/+DplnPo8cvEzlwF4Kb7xO9e1XEdhYiQzGsuorgg58dGEE76GnaHnk03gb1yEMjPzB/40cHoxWm5vBaNAKhIW9ag2pnQ+Quv9+UvfeT2L9xuXo1SyxTIoG6EqZysG9FF58kfz3voOplgGB8GYxIK89VmGc5H276P0f/1fSO+4FIBy+Svn995j4i29R3f8eJgjqn3e37qDvn/w+3tr1mO5eXKUY/bN/x+i//KdYHSvmdO4a0YwKMUFA8r4HyDz7JVo/+3ncVasRyyvHjPjkksIYjNYEfhV56hTl11+ltOcd5MkTyKtXsLNtM4ZObwZhDLo4TuvXf5Xub/4e7qo19X8LS0XCk0cpvvoqdk832Seexu3qmeILhFcucfZLn7lpCHc2MKGPZTtYXb2kdj9MyzOfIXX/Q9itbZFfco0590nHJ4wUBqM0YbWCvHCB6t73Kb72CtU976KLBYTrYnlJjBDTR4DmdCqDkSHuug10/c7v0fLE07MOnepqlfG//A8M/y//BLtjxS2TogZhDLpcxBiNu3krmU8/RebJp/E2b8Hr6ETY9q2HkD8GcG7+kdsfRitMEKDLJfzz56m8/xb5v/k24ZXLYDSW42FlW6PP1r4zn8GhdXSE2AG3kgmcrk6E44Ce5dxjDKqQp7LvQ0hkoqSf1ZzBaoRAZFoQgB64TO4v/j2Fb/856aefpeULX8Lbuh2vowPhec3Jsdym+PiSwhhM4KMrFYJLF6ns/5Dq4UMERw8TnDkJUHc8b22pNPEBDJgAkUjgrNtCatfDpHc/RGLTJty+VVjJ5KyPqC0Ld+NduKsPosaHwIDAmsyBNIsgXhKMofDD71J55y3su7aRue9+kjvuJblxM057B1Y6DdYny7z6eJlPxmC0QlcqyKtDVA8foPz+u/hHDiMvXkRXitELbqKjKWwbK5PBWbmaxLbtpB/YTWLHvbi9K7Bcd/63IiX+2TNUDnxA9YM9VA/uQw5ewBgHoXTTTKoahDHoMEDYFlZ3L86mO8ju2k3m4cdw16zDbslGhYufgNXj40EKrdF+FV0sEg5cobL3PQo//D7+kcMYoxGOh7CsKQPpln0GACFw1/bT8vmvkH7wIZwVq7A8Dywrss+t2IkVAmHb9d+JOSbydBgSXDxH8ScvUnn/PfxjR9GlAijd9EEqTGT+aRmAUtg9K8h+7ktkPv0EiQ2bsNvaEMkUwnURH1OC3NakMFKichPIkav4Z04TnDhK5YMP8I/sQ5dLiGR2Qc8vLAtn1WoSd20D10U4NsLzsBJJ7NZWRCqJSKTA8bBastjZLE57B17/+ijSdM2g0tVqlLwLQozWmFCi/SqyWoGgisnn8I8fo/zu2/iHDmCqFbAX2AJWEiMlzqq1Ub3VnXfibNmKt24dXmdXFDz4mJHjNiSFwfg+4eAA1ZMnqB7cS3DqOMH5c8ihIUy1MrtEV7MgQ7RfjjLLthutBI4XOauuC44LjoNIpbASLk7fKjp+7dfJ3P8gwptMphmlyP/we8hLF1DFIqrqY0plZH4CKmVMGKCrFbQfYEolTLEQlaDPEoFSSK1JOc78ZnglAYPV1oW9chWprVtJbd+Jt2UrXv+6OHP+8fA9bhtSaL+KLpeRIyP4B/dSfOMVynv2Ygo5jJIIy7r5rBlHh4zWCCGiJJZtg20hhFOv1ojKvAGl6jOlESI6B8zokzTWLNWOZbSOz68wYUDb13+V7m/+N7grVtZn2fDKJc7+nafBlwjHRctw6nFpKLGazb0Cyhik1gTGMOoHXK36dCYcuhNJEkLgWhauEHMyI6PS9uh+RDKDt3Ej6YceJv3wp6IVMJvFSiZva/9jyZNCjo0ix8cJzp0mOHGC6qG9VD/8EDk2iJXMzooIRvoIYUE6i92SxUpnEOkMdiaD3dIKnodwPHAcQMSZbIMuFjC+jyrk0cUSplxCF/LocgFsB+HNvWTbBFVEays9v/vf0fbVr9VzF7m//Wuu/O4/wOnpjz43zwGltSY0BmkMFaXwlaaoFSUpOVcuUVGSvkSaDscl61isSCZJWBZJZ35mmKmWAENi232kdt6Lu+VOvPUb8Favwe7qwb4NzaslG5INhwbwT5+mcmAfwelThOdPIy9fRo0MIDJtWJn2mQ9QI4Nl4favw1u/Cad/A97q1djdfdgdHVjpDHY2U69grZldJvQjZ7NYivIG5RLq6jBq+Arh5csEZ44RXrpIePEiOO6cyCG8JGZsmPH/+G9J7dhJ8q570OUyhZ++hkikb4kMgdaUlaKsFL42SKOJ1ygsIfCETQXFxUqZYUtgWxYDQUCn47AimSRt22TnGDETySgLHxw7THj6JKK7B2/NGhJb7sS9axuJdetI3Xn3tD7UUsWSWSmMlOhqHEo9sI/KOz+lcuIUamwMnc9FNu1snUqtwfNw164mveN+Uo8+SWLLHdhtbVixrS9cb/YvyRhMGGBkiPZ95OgI/vGjlN94herhg8iroxi/OqdQry6M0/Hrv03XN36XypEjDP7eN9DlSmR2zPYY8YoQxESoaI2vNGqazIuvNZfKFXIywFzz755l02a7JC2HVSmXFYkUScfGnY+PoBRYAiuZgbZW3O5uUvfcTcsXf4HEpi1YmYUNfjQDi04K7VdR42NUT50iOHKQ6v73qBw+ihq8BI4XJZhmi7gJx12xktQjj5F5/GnSO+/Hbu9YkGuX42OU3v0Z5Tdep7LnXdTVodnP9Epir1xN12/+V5Q+eJ/Ct7+F1dI541eEMShAao02horSVHVMhprfcgPMRIr6/WhI2xY9XorehEtXIkGL7ZCw5+571O7RKAWySurBR8g8+xVann4Wb/Wam393EbGopJBjY5Q/fI/Knnep7N+HunwZOTIQkWEOM2YdWuOuXUvLV79G9rNfILFyTVRisYAwQYB/4RzFH79A/rnvIgcvz2rFEMaA4+D2b0COjaDHRmZcCY0x+EpRUZqKVoTGEMTkmJkOEWZDCoiceW0gbdu02i6tjkOr69CTSNDmuiTm2RduKgWsvjV0/sPfpPOXfyXqK1miWDSfQuVy5F98nsJz3yU8dxZdzCOEVbdR5wytsTIZ0g8/SvbZL5BYs+4jSS4JzyOxYRM8+3mCSxcovXwVo24+TI0QoBThmZPRzzcghDGGqlIUpKQS+w3agL7F4pQbQQC2AF8rRrRiTAps3yJdqtKb8NjSkqHDm3tfhki1oIeu4B8+gPS/hruESbFogeXKkUPk//Y/4x85EPU32w7mluLcBiubxdt0B15P70eabRW2jbtyFd7mzZBIRY0+s8RMJokBKkoxEgSMh5KyUkhjFowQU85tINTRNSSFTVfCoyvhkpjnOxLGgG1TKJXQZkm4sTfEoqwUSinkyAhqZASjNMJpTi2SDkNUoYgJQviIBS5M4GMKBZCyqVEW17Jodz08S+JrTfUGjnSzYAClBa2uQ6fj0Z1waXddujyPhGVhzYMUwhiqWnOlkCfrB6xv/mU3FYtCCq01OSAnJUmtcJh/4VwdwsIUClT378HftYvU9vsW3J+owYQB1ZPHqOz7AFMpgt2E+yEyZVzLwrEsUraFMhBoTUGGFKVqOjkEkLFd1mbSrEh6tLkeCUvgCDFvMhghKEjJgB+Q931cMxsPaHGxaD5FAAyUFK3VkG7Hw477leddpCcESEn1gz2MmT+m7e/+CpndDy24soUq5Cm+8yb5v/kr/KOHQTS/1VMAjmXhAJ4lSFkWbY6iIBUlpQjN/A0qX0HShrXJLB2ew+pUirRl4d3CqgDUyTAuJfkgxDcag+F2yFQsavIuVHClElK0yvQkErQ4DtYtEMMIgalWKf/sVfyjB8k88SyZZz5HcvMdOJ2dTWvcN1IiR4epHD5I8YXnKL/1GrrigxELXv8jhMC1wLYckrZNpzH4WlOSiqKSSDNTbClCoMCLidDuOnR7Lp2ehy0EiWuqied0bQ3XUlCSfBiZfIiaNuLtgUXPaGsMeakoqwpp26Y34ZF13fojnPPqIQQYBzU2TuG5v6X4kxfxNm0m+/SzJLbfh7dyFXY2G5VXzHYAG4Mul5ATY4QDV6gePUbhxz9Anj0VBQm0jnRhm+hLXFdD1XBsI0QcJRLYRCZW2rZp1Q4lKSlIRTDD6rEhnaE/nWRVKoUtBC7U67rmu+IESlGUkrxUlJQkNCZqNhS3Ex0iLDopQGCA0BjGw5CSUrQ5IVnHpisRlV00EmNWJKm9YKUgl6O69wOqH76Nu3o99uatuD29uD29WG3tWJkWrKR7fRzOgK6EqIkhVK6MnhgluHCO4NgR9MRVEHFGXFhzFjqbcvfGoEM/OmUQYPwCIBCJLMJxsLt7wQ8g8G9430IIbBGZVUnbpsMzFGQ0U1e1QgMZy2ZDOk2n10aH6+FZ8/MTrkWgNcVQkpeSvAxR9ZUqKmG8/SixJEgxCUsIpDEMBwHjUjAShrTZDm2uQ3o+A09YmPo78ZADg4RXrlCRYbSkCysq3xYW1jXl5lr6oCOVP6MNYBC2gxA22Ml4Vbj5C792xtcyiAZ/tRD1h2c7sVs7EN3duH09uCv7cfv7cTo7cfs3EJ4+zui//RNM4N/8XEQEsYSg3fNodV38hpJxi2h1udUVTcSJw4lQMhYGlOol7OIGf95eWFKkqMESUVa1JCX5QDIYCLKWzepUklQcUZq7WWXFQmZW5FvEY9UogzASHcrrvmKEAMuNFGBiJcDJWXCaU9T1liRGRcerl3s7HnZnN07/etzubtzePlL334u3fjN2tgUrlY76oeNOPYRATYwz8Z2/Ijx3HKu99+a32LiiEr1cx7YxTYjC1e6tojUD1SrjYRird147OdyeRGjEkiRF44O1LYE2MBZKJmSRbs+lxXHI2DaphtVjbs6hmPLuZvxuLHeDob7qiFgzygRVTEPfg/ASOB09WCtW4Kzow+7uw+lZibuiB8vzsFesipz+tvab+jO6XGLsr/6Cwnf+LJK5mcVdXWti3orD3His0BiKYRRJKsiQqjJYIpq8Gs7Ox4EQsGRJUUOttUbgWNHfh/2QCSlJ2XbdtErZdl10GJrUf92A+rFkgC6NIdwkVnsv7qZNOGvW4a1di7t2De6KVThdfVhtbVjpNFYiiZVOR3IxczmflJT2vMfYv/rniJbOOd/LXD9/7fMyQkBcgZsLQ0aCyESK5wYca7rjfzwIAUueFHCtfVpbOUpSUZKKwcCn1XHo8zxStr1w5R1KYXd20fe//UuS27YjUmlEtgU7kcCah6zmDWEM1UsXGPvTP0B4yQVvra0RQsQOsgZCrRn2fSakJKhX34rIqrvlEy79ltXbgBQzQ2nDiB+SC0JaXYc2xyHjOHi2jdXMcKBto0ZHGfqn/y2tX/17pD/9OG7/BkxPL65lN01dT5fLFL73Har7PsRyEx9BlVO8AQ3E4VzJ1SBAm9gpb9YTNAZTdUl09y15FZBFIYUQommhOiEEjogabsZDSVEpkmFIxnZo91ySloUtxC29iLoD7XqgFLm//DMKz3+fxI6dpHc9ROr+3Xj963DaOhCJ+c/sRikKb/6Uwvf+Fm7BJ5gtlNZIYNT3KUmFbzQVGSXb7Gaan9KArtD+6G7WffHLeC2tTTv2QmBRSOE4Dol0Gqc1ixiFZjhpIl4VlIGSisofxsOAjO3Q4Uarh21Z81o9pgxO20aks5hqhcpbb+Lv/ZDC2h+S3LqV9MOfIv3Ag9idXQjHnfPqUTl1gtE//tfIocuI1MJ0qGljUNqgjGY0CMhLRaWhqteu+wtNcJy1RjiReFvng5/inn/yP7Fi14NLvi110ZqMgqFBTvzln3P2b/6S8pXLGGXArsc+mwZtDMZAm2vT6jhkXRcvVrFo2jKuFMYvAoLsk8+Q/dyXcNdtwl29JmqBTSRuakurfI6B//4fU3rtpQUhhDKGUBtKMqQQSsZkiDLNXRFqiOhkcDIpsus307nzfrZ/83dIrVy95AkBi955N8rZ55/j3Hf/mvzxowQTZYRr1XMCzYQ2BiEgFZdEdHgeCWHhWqIpCa3oJApTKSJSKbw7tpHe/SCp+3fhrd+M09OHnc1OG4o1SjHx/b9h8B//BnbXqlu/jgZIrSMyKMl4EMb1UdG/NZsQkaSuiUQSLMHKz36R1V/+KiufehonlW7quRYS9u///u//z4t1ciuVpmPLHXTseACnqxf/6hjhxEjDFnJNrCWK/ZhAGypx0VpJKwKtEYBnWbdODGFFPeUa5NAV/KNH8I8fpXr8KDqfx1hWFKr1poomBOfPMfR//u+Y8YmmFS1KrSlJyVgYctX3GQtDKjpS97BFVD3QLNTIIAQkLYtOz6Pb8+jp7CLb0YHludht7beNFtSiCxdA3I9wdYhLP/gB5//w/6BUquLHHWaTWdMFOTMgSFoW3QmPZFwy7QiB0zCj31LeQ0X7aFsd3XgbNpJ9+GES2+/F7d+A27cCNT7GyL/5V+S/++1IYvMWoIwhVJGIQUFKxsOAcIHebhx6iIsSBa4QpBybTtcl4ziR72YMItOKs2oVrc98htTDT5C4444lv8XxopLChAHh1atUDh+guudd/DOn8Q/up1ipUJSSopSUpEIS9SovFDlq7ZGeEGQcm6zj0Go7OLY1P5mXaSCMQVcKoCTO+k2kdt5H6sHHCC+cY/w//CFWomXexJNaU41lbvJSRj0W2sR5heabSMYYLCBhWaQcm6ztkHXseqTv2vswfhWCCqnHnqTjN75J9qFHI0nRJYpFI4UJAyqHD5J/7nuU3v0Z6spljO/XC/QAfKUoSkVOhlSlomqipv1a4VuzUSNHwrZICoukbdHqOKQdp2nkgKh1Fa2xunuxEOhiPorjz/GepNZUVNRsFJVfaGRtO+GmXW18zVD3F1whaHGiaoKkZeHa9qz8E1Mp0vr1v0/P7/0POK1Ld8/vRUve+RcvkPv2f6b4yo/QlTLCdq+TPUlaFomETYtjU1WafNy4Emi9IKZVzc4OtSFEUVCKiTCk1XFpdR1Slk2yCf3ktY0lTW4cVduEZZb3oeMKVV9pikqSD0Oq2iyIHwZTyZC0bVpch6xtk3acyA+bC2yH0ugIXcvCBdfDKBlJYu7bg6lWIx3X6T4Xv2DPtvFsmxbj0ObI2FGWVGJVPBbQ7/C1YSQIyIdhZCo4DmnLJu3YOA1b/s7L9JllTZSItZ1qUjcFqajqyESSsVm5MHdvSFoWSSsqvmyxHdKOjT1HMtR8srFCGasasHZBrrV5WDThgmKlQhAEWHOYNIQQtLguWWNoc5y6Q1kIJb4xqAWYgaLVw+AbQxBKilKRtC1S0iZrRyRJ2PbcG6FmCRMLJU+EIUWlqCpNYCYnguZEkaYm6mrRuKxt0+65dYXyuZKhhkBrJqRkqFqiYw7yP4uFxSEFgrIQjFYC0mFIKq5Tmi2EECRsm4Rtk7Ft2hyXslaRKaEmJSSbt3qIepm0BspKU1aanIjKSdoch5Qddb3Zt9DjDJMlJQooxqvhRKz5VDeRril9nx8miaDjPftsIUjbNinbot2NSmS8eTR31e4h0JqK0oyFAblQEoqlbTbVsKgFgWMVyVjZp1NYdCa8+sXMZVDZlkXWskhri1bbpqI0eSkpKklVNZscUxFqQ05HLbQJKxpQbY5LZgYT40arSN0MA/JhGDvPUeO/YiGib9EKqEzUidvmOGRdhxbHwb0FAYNaV15RKiZkSFkqAmOWvABaIxaVFEpDRSr8apUJGdLturR73rwUPSzLihxz25B1bALjUZCSXCipar0gppWIM++hMUhlKMc2f9q2aXddWlw3KkZsOPe1++7VfmeEIB8EDIchFalQRHmHGhmaT2yDZ1l0uS5px5nM7s9BwOBagodakwtCcjKkHEfCdMP13y60WAKl44IQkFJRUYq8VPVQX3IeradCCFzbxiWKXrW7LvnY7wi0xjcaqZvlnIqG/0emVUVrqrGvkwlCMk5k4jkNQYNQa0yDiREaQ0lrckFAaKZG1W6NDI0mUhShsgVk7Mjc6/KihOV8fQWIwsJSR+bkuAwphTLKK8WiBUu9THw6LAFSTA6q0MBIEFBQUWddKgzpcF3S1ziys4VtWTjG4Llu3THPh5KCkpSlikwHq3mRm9qRDBAYCMKQnJSRcoaIlPY8YaFi3e9Qa5SJB1Y9vyCaWAkh6gWRCdsiY9tkHZu2eAXzGhJtc5p44s9WtGY8COrRMGkmiwFvRxWPGpYEKWoQRKZEoA3SSHLaMBGGpByHTsehPc6CzoUcJo7QJJjUR+oxHmWlGPYDCk3Wfq3dR/SDQBOFdYnV8QSq/gFdE0+IP9vQENp4lHlDG4NnCbo9j3bXw7EEDtSzzo3mzM2eaaMJWFSKId+nGgs+N8raTF07b08sKVJAgykSz0ZVbfCDqLOuzQ3pcBySTqSON9ccgRUTxCEiSNZ2KCvJaBBSNTqWg2nsKWje/UBcIlH74QafudFvZgNtYuIJSFs2Gcemy3VJOM6UjPN8bPvQGEpSMh5KJsIwcpzrx7y9SXAtlhwpJjE5c0a9w4bRICQXyrqd3ul58yIHxASxBW2WS9ZxKMfKdkWpyCuJ0nF7R8P1LB1MXUl0rMaXsAVZ26HVcWhxHbxaHmOeUSRlTH0PvbyMFABVLQp2G/oKs8USJkUN0QCo2doa6oWCY0GsJOh5tDrO/JJmIuqnaHEFWdehFyiEEfkG/SCSp2ziytEcTCWEIwRtXkN/umVhMTuT6Ebh4cAYBqt+HNqO/a8FiYItPdwGpLj+JZhYlCwwhtFQMuxH5FiR8KLw4rzUBEVs80O769LmuqxKpxgoVyhoFec8JtNnU39eDERkaHFdej2PTKPg2SzDn9fpRAGFIOCqHzARSqj3XQiW3LywgLgNSDEzajN5WSlOlyukbIs2x6HD88jYdt15nwtqn3eNoT+dQgIjVT/SS1USFZdlT60MXWgxMFOXtsrYDq1ObD5aVt1Rnysa94+olZ3npERP61fd6v0ZhLDoefixZeGC6VDrghNW44zbjGMSbZSoou2wMrZd38jQs6w5E6T2WccYViQTdJOgGIaxmLCkonRDecrCEaLmnKdtm27Po8WNAg31f5vX8Uw9uZmvmUgxGexpC9LmeX+xvydMyD3/7F+w5Zd+ua5wvlSxaGoebWtWk968jsrohXiPbJtmDKx6+bcxTEjJhAzxfItVqSStscjwXPsxauSwiU0rzyPQmqvVKqNhiIxjq5PHrM2qtza7inh1SMdib12eO+/SC6C+k2pJSkbizHPjNiqTgYUmEVyAKUkcN8GuP/wj1n3xy1hLuLmohkXtvBve+yGH/+j/YfTtV5EVP9pVVNz6YLoWtQRW0or2css6DlnHxbVEpMA/z+rWms5qPgwZDUMqcWmDifuV53oPtbuO1MEh4zh0uy6tnjfjfhUzHjO+HgWMBwHjQUghlsC0rblf42ygYuc/3dZO1+NPsf2b/4jspjs+su3WbhWL3qM9ceY0l157hYEfvcD43nfQauFs8xo5LAvaHJc2x6bFdaPQ5Tx7BGp/1oQCaqZVoCcL/GZC492aWiTJdelwHdoayDBnvyjWdyqraCOVopJ10l7vC8GtP/NalBAcAR2ux6rePloeeoT0/ffjPfI4qZWrIrmfJY5FJwVa4+cmGHv/PU78m39N7tghgnBymyqxIFGeSfMmIaIaoDbPxY2jLNP1Gc8WNXIUVKR1W1Wqvvn7tVsgCqLB61lWvSapvYEM87kGY6LGo3Ks5JGPcwuTZ2wuDNRNUs8S0WTjRi28NmBkiDGG7LNfpPXnf5H0/buxsy1Nv45mYlFJocsl/DOnKb/1UyoHD+Af2E9pYpxcEDIR9xzXyqYXapuoWqFc2rKirjrbisqnbRuHeXbUxajE4gtVbajoaPOURivIsaPK3kycfW7cmGYuNUnRqhBJYJaVIheEFFS0WjW/K6+2AkampwWknCig0eF6JK3rJxRhDLpaxtl8B93f+K9p/dwXl7QptWik0KUihddfZeJb/57q/veizVG8aIcgEXeblZViTEqq8R5uzZ/ppppqyphoxraijrNsLFgw517kBj5pKoYAACAASURBVNQGdaDUdT0FiXjjS5iffL5mUrwgF4dVayXblmisCWgmItfcE9Ek0hK36M6m/0KXC2S/+BVW/LN/gbOEw7KLRtfqyaNM/OW38I8dRiRbpsTZjRBRlaxt05lIkA8CcvFGg1KbuLx6fs7sVEz9bs3WzitFqarxrIBW26Ej4eHWWjLnmfO4toOtJn0/n5VIm0gCs6Ii/6UgpzZUNV35Ly7tqD2DlGXTHuvzuvG5ZnMf2vEIlEbrpb2X9qL1aIdXr6KuDkYP3Lp+uW18yG2uS4vnUQwCylqTkxJf6XgHzloRXLMGwqQjWlGaqgrIx41D6bjmqiaadium1XzJUFUq7i6MNpgPmt56C7UVtPZsXREreTiRvlPKtuticbM1M3ylGAt80pWA1U280oXAopBCKUVFQVlKbK2v21x02nocoNV1yRK1TpaVpqAkFRkpejTPBmyI28fXUdWawJioN0KISCzNdUjNQfNoTldwzaRgtK539eXiVUFimqxi0mhKRn8mLBGbSA6Z+F6dOZqSUmvKUjEaBoznc/Sp6/cWXGpYNPOpICVDxSoZPyRj2VHGeRoHrb53Wy0ECqRsm6Tj0G5cqnFjf0kpfD1Z399Mi7qWEDREnXWVIGBChmTi2bM1LsK7lQ62RtTqkEKlGkq2IzUP0ygG10QuahPtYefGzVBpx6bVjkLWNSmfuaxuUut4B9WQ8SCkqjU33/Z+aWBRQwAFHwrVkFYris1nHWcKMaa8hGl+bwkRbQhpWVS1pqgUpdjh9LWJy5yb63DWCCINERmlIm9LsrFIWNK2Izt7vjN43Phf1ZEAQ1nKBue5mV15Ea6VDE3HQmdp28ZrmAxmQ4haMtPXmmJcQlJUMibcco/2rFFRChlKSkrT5ipSlk2b60wmtGZ4GfUEmog2Vk/YNi22TaANJRVJ3pSVQtH80GTNxw+NiQav1uStSHqnNTY53FnMsFNEDYCxIIh8Jq3jDsQojNtMlfDa2bSJyNDmunVz0BECZ451VSLOjRRip78Sa1P5eqGufWGx6KSAaEN5qRRVrXGAnIx6A5KxttONsrrX/t2mZloJMiay+wthnGE20WzbPNECpvRTK2MoKUNJaYqhjMyPeGtjK47aXDs4gljLqdajPSEjWdBwSui2eauDjkO1rmXhYNULJrOOXSfCXCDj/MikCSvxGyU8m9pv/tFhCZBiEiqecSp+QD6UJGNRrpYGFT648erR+HtbCDJONPu1uU69g6wcR2+myk02t7TEN5pqoCnE95CwrGkF33yl8LVGxuIFlXivjGY38tQ2rPHiKFKr69TNzrmSobYqVGMt29oz9ZXGLFhu5KPFkiIFxAMitkuD+OGP2yFZO8o2t7vunOqBLMuaNK1i/adC3FqZk3KaWqAm3AMCRDR4SkpTUgpHSqxrBowm+gyISN7+uirbW0MtW98Sy3tGLaoWjiXmpaKuGqJgJRVJEkUKHgtXcbAYWHKkgKkzZWA0gTSUlcYGxkNJl+eSmKOkoyVE/fOJePXojiUdy7HUprluMM5/cDZKWxqIB//0n4RrV4fmDK9UvJVAp+vixeHUuQjN1fwhZQylUDIaBFG5iolW9ShDYj42ZKhhSZJiEpODUhmDBMIwpCglCduiPZbIv1bg+Gaw46rYpGWRsi1CorLqklT16Ilq4gryUcyh9URbfE/ZOFyctGwcazIa1ljZe7Pj+bFplIv9hVBPhsWhTucFvKvFwRInhbjub4bIZg9klBQaCy0ydhQOzTj2rDLNpmGAuLaNZwxeIoH0oCyjiNWElNfsKb3Q7abzgzFRFClpW2TjjHtLLW9yg9DwTM/HGENZKgqqVj6iojL4+FjzewJL89ndCEucFNOj9mqiqlBNVYeMhyFJ26LTcWn13FmFQ2swccLKNYZE3NTTrTUjvn8NORb4xuYAE/sLriVocxy6vQQJ28KGOcnaNAo7l6RkyI9MJBWbSNcLtc0H0aRiynBDK3IJ4bYkRQ21+VvFnWVhrBmbCgLa4grO1DRFazciSy3n4QCObbMqmaTHGPJhlFGuxd61WZj9p2+Myc4SYwyuJUjZ0f21xqHr+Wx7LIyJo3GK8VjpXE5x+OPPNeH6dbVE+q47WPcLX8db4v0Ui0IK13VJZjLYrkOzhAsiRM5tWSkqWjEhLTJOlPPIOg617uBZKwpaFgmgW1i0uw6luFK3pmRuWOjEVI0MAqUNjojqvtriltqEbc8551JbGaLkpiSnJMVQxh2JzdoEZuo9qNESK37+57j31/9L2nc/hJiPBNFHiEXrpwiGr3LwD/4vTv+//wlFgHCb/aAm65+EiGQku73INHKZX5VqTSncj02rj4Yc0cyddRxWJhKkYtmeueQyGkPYFSkZ9qPaLW0apDwX4LpNtYTRinW/9k3u+cY3aV3bv6Sbi2pY1M67cHiIg3/6R5z643+HrI5iZVqjBuoFQC2BlbQsOlyXnkSiXtsD8yBJXOczEYSMBgFFpepFdc0giNRR9rnNcehOeLR7XkSGeYRUASaCgBE/us5QmwVQPYyJ55fRhRDhQd+Xvsq9v/lNOh7YhZVIzr8e7CPG4vdoAyOHD3P2ue8y+PxzFA4cw2pPsZCSdCoud2ixHXoTXrS5CszrpdVm4bLWjFR9xsMQPxZLm08yTmmDaws6HJfehEfatudFWIg2jsyFkuEgoKKiFc1u4tYDjWuMCaqgQjJb7qH3qWe540tfpn3HvVjJ5AzfX5pYEqSoYWjPe1x85SXOf+uPCYsFcFOg6rXSTTrL9QM0YVl0ug49yWTUhD8HO71R1QNi0yoIGIv1oGZjntTOZQlod1x6EpG6IcxhBTOT56qqSGd3PAzjOqpG4YJmhEfN5B8qBDSJ3lVs+OW/z4YvfpmWjZtvSzLUsKRIAaCrFa7u38+ln77C0Is/onDwBMapIpxkNGoWoMNMxYM340RVtq2uQ4vrYhkzbzU7P97RtCCjPo8gjlpdC9cSpK2oDKPVseuasHMhgwaCuBapFO+VV216HVVMJhM7Iihsx6LlrntY+cwXWPvYp2nbug07m23S+RYPS44UNQRBgBm4wsmfvMLgj18gt2cvihK6pnO8QPap0gbbikyrFsemI5GINjqZAzkabXlfKVTcIxFco+bhWiLKqrvunP0F4lZcX2tytd2ZYn+h+UWFJupCEgJLODiuS9vO7az+8s+z6lOfpmX1WsRtoOc0WyxZUjTCaM3Q3g+59KMfcvkH3yOYGEErMEFQz7Q26UzUy0riad21BF2eR0/CwxaRKECjIz3bfolGE6t+thlKLqb7vTAGHdciBUoxHksBVWLRgoUIpxL30FtYJLpX0/3Uk2z40lfove++Ja/fNF/cFqSoQVWrXH79NUb272Xiwz3kjh8gGM+jpUbYVpMjV1Prrlwh6HBdWtyoK82NyTGfGXk+QmfGGMK48SgXRjqwNee56WQwBiMVlmvhtrXSsmUr3bsepn3n/XTv2EHLylXNPd8Sw21FCohWDVks4g8NcuXDDxj8ySvk9u2lmhtCVoJokC4AOVRccOcIERXcOU7sC8yu3mreZ49NJF9rxuKiRX9BciMGo1QUZHBcUm09tN65gb5nvsjKRx+jZdVq7Na2Jp5v6eK2I0UjjFZUcznGDh/i8gvPcfWt1wlyOWSliq5Uog8toOx7lGF26fI8PEtEpdlNGqi1brySUoz6Ab7RhNN56k2AURJhOzhJl2TfSjq37WDtz3+dFTt24rS3IVxvQc67VHFbk6IRfi7HyP69jB04QO7IQSaOH6IycAVZqEQFbU7zyWGIkoIJy6q3dabjvgVHzK9kQsYmUkGGFKSMdhRiYTLmphJit6ZJdLST7t9I94576X7006x6YBd22ydjVZgOHxtS1KDLZUoDVxg7dpShd95kfN9BCieOE+QmEAkXsQClrrXyD8eKBBQyTq2U3Zm1TpKMe52LcWdbNW58guYTwlRCcAzZ/jtpv+8eeh97nK67t9G+eg1Od09Tz3U74mNHihpMGFCZmKBw6RLDb7zJwMsvUbh8lrCQQ/tVhGUvUFg3ak5KxFsSp+2oFda1rm1GjRAqTVnH/eNSERI51BGacX1x9EtGJpKVSpFs6abvkftZ+ZVfom3TZrIrVmDfxsm2ZuNjS4prMXLgACN73mX80AEmTh2lOjiEPzwUDRbHWxCCmLh7LxXLbF5bb1TLM5SVjktPFspEypDs6yO7fiMdW+6g/d4HWPvEkzifEMd5rvjEkALABD7FwUFyp08xemA/E4f2kj9xnNLJc5CwJsWcmnlO0yD5EieErfg8NSGyhSKDlU2TXbeZjvvupeeBB+i8+x5a167FbW8HsbT3nVtMfKJIUYMOQ6q5CfyREfKnTnLlxZcYfPkHVEYmwIDVUsvOLszqsTB7UUchVeNLUIaWrdtY85nP0PXYp2jbvIVMdzdOJrNMhlngE0mKRugwpDQ4wNWfvc7YoaOM7t9LeeAiwdgwJvARXoKl3F9slAQVYiVTJLp6yKzdQPc999LzqU/RvWMnbkcH1jVypMuYGZ94UtSgtaY6Pk7pwjkKB/YzsO8D8mdOkdu/H13y49VjKQ0sg/EVdipFy9130b71Hrq276Rj2z20btiI19q25LfmXapYJsU0UIUCxdERypcvMfCzN7j8/PMUDh5ApOwlsXKYQCKwyN51J2ueepaVjz9Bev16Eu0duJnMMhluEcukmAGR75Fj4sghht56i6H3f0bh4CHC0XFE2ka4H0UYM67B0gpdrSJEkuzWO1jzmc+y+oknabnjTpLtHQjv5llnKSVBEOA4Dt4sPn8jaK0JggAAz/PmvLPsUscyKWYBHYb4xSLVoQHyJ08y+OabDB/YQ/n8WVQhj3AXomw6Fi2QGnxFauM62u66i76HHqP3wQfJ9K8n2d4+q57nQqHAiRMnOXLkKLl8nkTCo6e7mwcffJBVq1bO+ooqlQpnzpzl2PHjDF8dxgBdXZ3cddedbN60mXQ6Nf/bXUJYJsVcYAwqDAhyefzBAUb2fsCZH36f0bffwIQ+wvGaVydkDCYo43b10ffU51j7+S/QvX0HXlv7nEyksbFxfvDD5zly5AjFYhGlFJZl4bouLS1Z/otf/jp33333TY9TLpd55933eOXlVygUi0gZlZ/Ytk06neZTjz3K449/mraPQXnIMinmC62RlQq5s2e4/ObrjLz/LmNvv0Nw9QoinUQ47s2PMS0MulLETqVZ9ZWvsfrJp+l78GES3T04c2zkqVQq/PjFl3j99Tcol8vT3IKmq6uL3/7Gb9Hfv/aGxwmCgCNHj/GDH/yQixcvXhfJMsaQyaT5hV/4BR7cveuWTLOlgKWvN7JUYVk4mQydW++mdcNGgi99hfGDBzj34xcY/NGPCEYHEelUbN5M55jX+jUm5yQ1XMBqc1j5xa/S/5Wfp/fRT5NubcVOJOaVcR8YGOTY0WNUKpVrBnJ0btu2GB4e5v3332fFir4bDuZSqcSxY8cYHByY1n8QCEqlMkeOHGHL5k309fXN+VqXEpZJcYsQto2byeCm06RWrKTv8SeZ+PXf5OJLP2LgpR9RPH4IVSkBAiuRprbrpa6WmOythcyW7az6ja+w9e/+El7vSpxUtNrcSn7h4qWLjE9MRAnDBhX0yR8ioenzFy5SKBTp6uq87hhaa3K5HAMDAwRBiH3drp3UuT04OMTV4WG6urpwbgN9pxvh9r3ypQYhsFwXy3Xpvmc7XVu30v/M5xg5uJ+JE8cpnT9L+coVtO8DYKczpFb04nX10L7lDjY8+jipu+7Cdt2m1GFJKalWqkgZRgN3OhckXqTy+TzlcnlaUkC0m20QBPVq4Kn3PfljEARUKz5KaW5jTiyTYiEgLAtheXTv3En3jp2oQh5VLKDLZVS5EpEnk8ZKp7GSKax083MLjTVXN0yriAbdptkqH99UIef2d1GXSbGgiEwWu7VtibZyzlrdag5fWUpZ//nh45V1WUbTYVkWiUQCrxZqnkHdLZ1OkU6nsO3be1jd3le/jI8EmUyalStXRNEpwQ0Xg66uLrq6b28nG5ZJsYxZoKWlhW3btrFyxQp0PWI2uVxorUmn09x99910dnQs2nU2C8ukWMZN4TgOmzdv4sknn2TVqlWkUikcx8VxHJLJJF1dXTz91JPs2H7PbZ+4g2VHexmzRCqVYvfuXaxY2cfxY8cZHRsHDJ2dnWzauJF16/pJp9OLfZlNwTIpljFrJBIemzdtYl1/P5VKFYBUKonrzrekZWlimRTLmDNc1/3YEaERyz7FMpZxDZZJsYxlXINlUixjGddgTj6FHxezSalw3fm1NEopUUqhlK7X23heFN5rluKE1hqlFFJKwlBiTCw/adm4bnQe27ax4y13lyKklPF/CqVk/fdCiDgcauM4zkfeCmqMqV8bROHaZr676c8VvUutFRBl2Wv3Xvu5meefFSmUUgwODvLBhx/i+wFKKVpbWrn77q2sWrXypuQIgoBSqcT4+ASXLl0il5ugUg3qL7u1pYX169exbt06MpnMvG5QSkmpVGJiYoLBwSGGR0aoVqr4vh8nnKIusWQqiePYtLW1sXLFSrq6umhtbVkSjmO1WqVYLJHLTXDu3AUKhQKVSqU+AAGEJUh4CVpbW1ixYgU9Pd20traSTqcXnCBBEDAwMMjZs2cZGR0DDO1tbaxfv541a1aTbIL0pjEG3/fJ5fKMjAxz6fIVisUi1WoVraLEoWXbJBNJHMeho6OdtWvX0tnZQTabvb60fR64KSmklBw5coTXXnudk6dOEQQBlmWRTCY5c+Y0ux/czfZ7tl/Xn6uUolgsMjo6yuXLA5w7f46hoSFGRkYolyuEYUgtK+p5Hr09vdx3/7089uijtLa2zooYWmsKhQIjo6MMXx3m3LnzDAwMMDI6SjFumdR1XdYIlmVjWYJUKkVXVyd9vX1s2Lienp4e+nr76Ozs+EhXDyklExM5RkdHuHz5CqdOnyaXyzE0dJVqtYpS6rrvCCFIJpN0tLfT1dXF2rVrWbt2DT093XR3d5NYgK22fN/n2LHjvPHmz7hw4QKlUgmAdCrJ2v5+du3axfZ7ttHSMr/djZRSjI2NMTg4xOXLlzl79hxj4+OMjo5OmdhqsCwLISyy2Qy9vT2sWbOG1atXs2b1Krq6uuY9ucIsSHHmzFl+8MMXOHv27BRzo1KpcPTYMcYnciipePTRR+rfyefznDhxkjNnz3L58mWGh0coFAp1BQgRy0bWrtn3Ay5cuMjERKTQ98wzn7np6lOtVjl+/ATHjh3n4sWLTORyFAoFqtVKfOzpdxlSSqIkBIFPLjfBxYuXOHb8OO1tbaxevZrNmzexbds2WlsXfuuqiYkJDh85ysmTJ7k6dJXRsVHy+QJaK0Ss5DfdPRhjKJfLlEolrgwMcPrMadpa2+jt7WXDxg3cvXUrvb2989qyeDpIKTlz5iwvv/ITTp06hda6/nwLxRLHjh0nny+Q8BJs375tTma1MYaJiRwnTp7gyJGjXLkywPj4GMViaYqa4rXPIZosFOPj44yPj3PhwkUymQwrV/Sxtr+fu+68k02bNs6rDmvGbxQKBV5++SdcuHDhOvtbiGimvnz5Mq/99HU2bNhAV1cnp06d5u133uX8+fP1ZU8phSWsGyzv0Y0LG/KFAu++9z5bt25l/fp10w4IKSXnz5/n7bff5dTp00xMTFCtVusP0LJmXj6FEHFFd/Q5paIHm8vluDIwwJGjR/lw7z4eeeQhdmzfviDFbVJKPvxwL3v2fMCly5coFIrIUKKNjp+Tzc0GcjQoAQzFYolSqczV4WFOnznNgf0H2LFjO6VyGUtYMx5nNigWSxw+fIRzZ89hjJnyHoUQaK25cuUK+/bvY+WqFaxcsWLWK/2hQ4d5/Y03GRwcIJfLI8MQbQyWsOrv6kb33/hntVqlWq0yPj7B2XPnOHToMOvW9fPUk0+yatXKOa0aM77xiYkcZ86emXLyhssCwBjNyPAwhw4forurmxdfepnz58+jaltFCXETW7exNVJQLBYZGhqiv78f+5q9JCqVCocOHeaVV37CpcuXCcOwfo5bMXlq1xcEAb7vMz4+ztWrVxkeHmbXA7tu2JE2H4yMjPL+nj28/fbbDA+PTJl1rSk6r7O5HxFff/SnlJJ8vkA+X+Dq1au4nkvVr95SI58xhkIhz8DAFfzAn9ZmF0KglOLq1WFyExP09vTcdDIJw5ADBw7y/PMvcOny5fpxhBBY3JgMN0Lt/WutKJXKFIslrly5wvjYOI8++gh33nkn2WxmVsea8crL5TJSyhkHnGVZKK3Yv/8gtm1z/vx5tNbzdvp835/ib0D0YvL5PK+/8SbvvvMuwyMjsyDb3NFIrqGhIV566WWuXBnk2WeeZs2aNbd8/IsXL/Hqa69x8MBBCsUi0fZ8zbuHxusvFIv1393KSmGMIQhDKvFqPBMqlQrlSvU6+386vPPOu7z08ssMDV29flK7BRI3riBKKY4eO8bwyDDbtm3jySeeoK+v96bHmJEUtVDmzDCEoeTixYtRC+R8VLVrInhak0gk8TxvyjFGR8d4/oUfceDAPorF8i2vDLO5ICEExWKJffv2US6V+cIXPsfGjRvmfcQTJ07w4osvcfLUaXzfj4QEFhDR82lSa2j8Xm8GrTVaKW720WPHjvP9554jny8s4Ls0ddNueHiYt99+h+HhYX71V36F9vaZuyCbME2JaDYJAsIwmON7MLVDAJF939PTPcWfKBQKfP+5H/Dee+9FhOBWHuJsL25ytvF9n2PHj/HD55/nzJmz8zrrmTNn+NGPXuT4iZMEgT+jrdxcLL0czODgEM+/8AITE7kFntzidxh3RVWrVY4ePcYHH3540282ObA915c9OZtJKWlpaeGJxz9NZ2dn/WF97//7Pnv27EGG8hqZlpmhtSYMQ6SUGGPQWiOlIgzDeNabHUGEgDAMOH78BC+/8hMGB4fmcoMMDg7y6qs/5dTp07FZ+MnGgYMHOX36zNwTbvNd9OJghBARMU6cOHnT97AoVbJaa7TWU5bkTZs28fRTT7J9+/Z6Iu2NN97krbfexhg9s9pFbH4Zo1EqMvnWr1/P1q130dHeTjKZwAClYpTc+3DvPkZiv2Q2yR4hLKSUHD58mETC45e+9ouz6h0YH5/gpZd/woGDhwiCYN6z4rW5iilO+dJbDG6IK1cGeOeddwnDMOrjNjeY5OqBNwMmskSUVvXx0hjAmTQTZ3oQ0b/Ztk2pVCKfL8wYPPnISGG0iUKOlkVrSwsdnZ10dHTQ29PNhg0b2bRpA5lMph61OHDgAH/73e9RY/mMx8ZgtCGVSrJl8xY+9enH2LhhA4lEYoojW/N5PvvZZzl8+Ag/ff0NLsdRLMuyps5G1wiH1Uypo0ePcvDgIR566MEZr0lKybvvvcf+/fuoViszO9TXvNNa5M5xHDKZDIlEgmQyiVKKcrmM7/tUKpU4oFEzQZY+O06dOsXAwMDMhIB4goveVcJzaWltpbOzk87ODhzHITeRY2x8nEKhSLlcqr+/iB83tyYcZ+aJcMFJETnrgu6ebrbedRd33XUn69b109LSUs99XBtJGh0d440336JcLt80OmOMwXVd7rhjC08+8ThbtmzB8xL1MOV08DyPhx9+iN27d3H+/AXeevtt9uz5gGq1Gq0cBqabfQRRyPjdd9+jv7+flStX3PAcp06dZt++/RSLpZtHmOLJTmmF67ps2LCBO++8g7vuvJO+vl4ymclQYhiGjIyMcPbcOU6ePMXp02fqSc/6sT5y3Ny2KRQKvPraTyMiC+vG1xk/9paWLDt37uTenTvp7187uTLHGwcaYxgbG+PQ4SMcPXKEM2fPUSqViNy1aVYPE0022WzmpuUoC0oKpRRtra3sfnA39917L6tXr56VXPuJE8c5fvz4TWdXbTSZTKaueN3d3T3ra6sVk23evIn+/rXs2L6dV37yE44ePRaZbzeYcaRUXLp8icNHjtDd3TVtzVSxWOTEiROMjAwz22xyEAasWrWKzz77DFu3bqW7u2vaz7muS39/P/39/ezetZvz58/z5ps/48DBg1HeZhYzZfNx80hXEIQUCvlZTRDd3d185ctf5J577pnRTO3r66Ovr49dD9zP6dNneO6557gyMABY11sXAjzXY/euXTctg2k+KUxszhjDqlWr+Mxnnub+++4jk5ld/24+n+fd9/bc1AY3RAoSTzzxOF/8wudvqaDP8zzuvXcnXV1dfOs//icuXrw4+fIax3T87ovFEseOHmP7PfdMG/ceHBzixImTFIulWfgRBikV3d09/O7v/CN6emZP7HQ6xdatd9Hd3UUqleL9PXuicO+iEGNm5HI5pFQzzhHGGDzPY9u2u3nwwZnN00a0tbVx//33sWnTRv7629/hwIGD+L5ff4e1vNkjjzzM9u333PR4TSeFMQYv4bFz504+/7lnWb169Zy+f+7cOU6fOsVM/lP08BI88sgjt0yIRqxdu4bf/sZv8cd/8qecO3du2qysEAKtNOfOn2Pvvn185umnppy/XC5z7NhxBocG44udboCaht8Ltm7dyq/+yt+bEyEa0dPTw1e+8iXSmTRvvfUWpWKZW613mhtubj6FYVT3drNLSiQ81q9bN698V1tbG//wH/waR45EpTpDQ0NorWlvb2fnju089tijszpOU0lhjEFYgjvvuIMvf+kLc5Zkl1Lywgs/JpQyIoWY/sXWzJ6nnnyi6SXfXV2dfOO3fpM/+dM/5cKFi/XixUYIS1Aqljl54gQPPbibjgatowsXLnDw0EEK+SLWDZXyRN2ZvGfbNr72tV+kt7fnlq67ra0tIqjj8Pobb1IoFJqh0zxL3Nx8SiSSNx3kQkC16nPo8GE2bdpER0f7nHteXNdl584d3H33Vnzfr68+c6kcbk6eIn4eWmtWr17Fs88+M689Ck6dOs3A4GDDb6Z/GNlslt27evu2pQAAE8JJREFUds17Zr0Zuro6+erP/R06Om4ctjPGMDo2xvnzF+q/U0pz5sw5rlwZQMzg6Necvvb2Dj7zmadvmRA1tLW18dBDD7Jh/boltw9da2trtPLWgxjTQdRror79ne9w6PBhxsfHqVarSKlmlVWvwXVdstksLS0tcy6lb85KEc96fX19fO6zn+WOO7bM+RBa///tnWlbG9mVx3+l0r4hAQKDEcg0a4y7MQaDu731lvSkncSdySSZZ2bezMybyWfIi/kikw8w6UniJNPTSbsNxsbutp22jReMjW1ALAYhDJLQrqp5USqZRRJCCLcyw/95bD+Gqrq3lnPvuef+z/9IPHj4MEPyywVRI+J2N9DauvM2doLm5ma6u99kaOhy1qlcRiYYDPJiYSHzeyUPYiGTc5ITaUpLd/ebNDcfKukHXFNTQ3d3N7Ozc/iXl8sms9Bg0FNbW0sgEFhHad8KQRCIx+M8ePCQmZlZmhrdeDwe6uvrqKquxmwyZdRE1Oy7Ut9jSYxClmUMBgNtba20tLQUdY1gMMjSkj/3aJBewGt1Wjo7O7FaLUQikV30Oj8kSaazo4Pbt++wvLy8ZZNP2SGNseTzkUgk0Ov1rK6u8HLlZZ4RLV3cUZaxWCwM9PejK1WNvHVob2/nzt27rKysIhXEX9t7qFHCqamp9MCX+1iVs7S8vIzf7+eb23deJYXV1lJbU0NVVRUOh4Pq6mpsNisGg6FkaaklMQpBELBarTQ3Hyo6OScQCLKSrrqTvREyvKe52TlGrl0nldyalVY6yERj0ZwPWmVhrgYCrK2F0el0rAaCrK4G8lxT8b0TiQTd3W/hclXn3U8pFg5HBZ0dHUxNTrEaCJTNbPHGG2/Q2NjIxMTEtjvRm3lRsViMmZlZvN6ZzL6WXq+n+dAhmpsP4Xa7cdW4sNtsmM3mXeXBlMQoNBoNFRV2DtbXF50jGw6HiUUVsly+kTYajXL9q6+K72yBWO8y5XJvZFkmvBYmGAxgs1lZC4UKYMAq99fTc3RP0kZBoTM0NzdTXV1NIBjckzaKgctVzdtvn2BmZoZoNLojtzEbJUcpUDnGo/FxXK5qampcNDU14WnyUFdXR1VVZVGuaUmMQhRFKiurNkRhdopIJEJcJWrlHEBe34hXaEgwnogrfY8nCIXWSCYTeRfZkiTR3NxMfV3xA0ghcDgqqKuvY2Z2VjHUMpktjnR1MTk5xdDQkDLz72KmXG8oPt8Si4s+Jiae4XQ6aWpqpLOjg9bWlg0E00Kwa6NQP56KCjtWq7Xo6wSDQWLRiDJLlMH7U0aY9RVMs3dKldNJJBKsra0Rj+dnYKZSKRoaGrDZrHv6oZrNZpxOJ1qtSFqZqCxgt9v4wbmP8fkWef58UvEOSuBCqu5WLBZjfn6eubk5vvnmDsf7jjFwYoBGt7vgmbkkYQ9BEDCZjEWPfJIkEU8kkPOVyflWIGz6N8sRmdxzeQvzNx+2yyUvBRSNqz1vZsew2238+JPz9Pf346x0FpSpVyjU9YYoiiTica5d/4rf//6P3Lx5K2st8Wwo2UJb3MVLTqXWx6DL8C1mg6zMkmazGbu9IpOzUV4o32fZ2NjIR1YrDQfr+cs33zA6OopOpy9piFW9zsTEhCKtFIlw5vSp18F92v3IrtFo0Ot0O0rRVD9A9cZ3srFTDNTpef2Hb7fbaG15g6qqKoUeLhb+QlW1u72EMnPteTNFo7KykhMnBmhsdFNbU8PjJxOsrKwQi8YyoeRdZeetO83v9/PFn7/AUVHBsWM9eb2aspDiF0VRofMWePOqGJhiCEKaTbzXb//VyzEY9FRVVdLe3k5fXy8Gg55EIo5Br9822qHRaAgEV4lEIgWLvhWDeDxBOBxGksrYKlB2nj0eD7W1tTx58oRp7wxzs3Ms+hZZXVXqeyu8KWFXs4goiqwGAnxx8SK1tbU0NTXmPLYERlGal6ry3BXOTv4dT6fTydHut9AbXn8pKQENFouF2loX9fX1VFQoSfBarRaTyYROqyWa62QZNIKGyedTBAJBampq9swoQqEgc7OzCtu4jN0oFSaTia6uLpqb3yAQUCQzfUt+/H71zzJzc3NEIhF0Ol1RBiKKIjMzswxdvszPfvp3OfMqysJ9ArBabVgsFvx+P7KUOwIlIGC12ujp6cmZc7CXUMOAer1+wwaRVqvFbLGg0+tyh3MF5fxAIMDjJ09oamrcs72KhcVFfEtLShbfX4FRgDKLWq0WLBYzNTUu4vE48XicSCRKIBhg2b/MwuIiT58+ZeHFIpFoJJNzX6ibJcsyo6OjHO/rpbOzM+sxZTNT2O02rGqGWZ6sLAmJUChIKBTaleRMqSGKIpVOB3a7naUlf95jNRoN165d58RA/54YRTgc5t69+6y8XFF+8NdhExmoqbharRaz2YzDAQcO1CK3yEQiEY719LAaWMW/5Gfa68XrnWFhYaGgDUFBEAiHIzx8OLaXRlEa2Gw2KrdT4hOUWSkUCjE+/pi2ttaSKF2XAoIg4HAoRrEdNBoNPp+PsbFHDAz0l1yac2pqmsnnk8QyrtPrzK3YG6gzgcViwWKx0CAfJB6P8+abR1hYWGRi4ikj166xvLy8aY9pK2RZZto7QyQSwWTamglaNvxiURQ5UFuLKGrySNAoCfrxeJyxR4+Yn59/zb3MD4fDgcvlKmi0EgSBW3/5Cz7fUkmDBGtrYe7df4BvaSndWOav/1MQBAGDwYDT6aSlpYWzZ0/zT//4D9jttg31PLJBlmV8Ph/RaPbVXwmMonQv9PjxvrSEOuR7kepNXbk6sqdM2Z3CYDDgbmjA6XSmaynkhiiKTEw85crVq5lKo7tFKpVibGyMhw8fEI1Ey4baoSKRSCjSoYND/O7CBS78/g/cuHGT1dXVXV1XqxWxWq20t7fxyfnzVKT3jXJBEAQSiXjO5142awpQkoc++OB9fvvbC8pHlSPzThAEkskk9+/fp7KykjOnTxVdFyEfgsEgGo1mg5pGPgiCQHt7O60tY9xcubXt8alUipGRa2g0Gr774QcFuV65EIvFePDgIV9eusTioq/sDGJtbY0bN29y6dIQgUAgo2VlMOhpbGzio+99SHNz864yKUVRxOl0ImpF8rIQENKbr9kHrrJZU6g40nWE4eGrLCwsbFLh3opAIMjly8PIsszZM6dLZhh3744yOzeH1zuDKIoc8jTR3t5OQ8P2+eY2m5U33zrCtNfL/Pz8tq5UPB7n0qVBJEni/I9+WFTJtFgsxt3RUS5e/JKZmdmy4Y+tx+joPf74x//eIuaQTCYZH39MOBzh/ffO0tV1eFdF6m/eukUotJb/IAEQBAyGMg/JqnA4Kujt7eHzz/+c0YzKtWYSBIFQMMTw5WGikShnz57G5So+tTMYDPL5n/7MyMg1YrFoptHbt2/T2NjIj374Azo62vNeQ6vVUl9XR319HX6/n2Qykb3z6yDLEpcuDRKPxzl75kxBxqciEAhw4+Ythoev4PP5Cj6vtMj/DYRCIYYuDxMKZdfxkmWJmZlpfv3ppzx+8oRTJ9+hqalpRz1IJBIMDl1mdHR0W6V8AQGz2YIhxz5XWblPoPjlA/0D3L59l9nZWWU7Pq9wlkwgGOTil19y7/4ox4/309fbS3V1VcEExXg8zldffc3wlauZAjXrVThSqRTPnj3jN7/5Lb/4xb9tq1pdU1ND1+HDeL1efItL5J/wVClIuHp1hFs3b9Hb10tf7zE8Hg+CIGyYPVSN3EAgwL3797lx4xbT09OZOhffTqQpv3DB8+dKabd8Hp0kKcVnrl4d4c6dO3R1HaHn6Fs0NzdjNBqzRuiSySTRaJRnz54zfOUKjx6NKwaxzf2npCQeT2NOz6Ls3CeAmhoXJ995m19/+l/pn+SaKpSfq9lrCws+fve7C1y8+CXHj/dxrOco1dWujOaUTqcjlUohSVKmMOX4+DjXrn/N4uLCK37+pverLvxfLLxgcGiQT86fz9t/rVbLkSNdTDx9xvLyCqlUvpHr1YcsALF4jOHhK1y9OkJ1dTUdHe10tLeh1+uRJIkXC4uKezc7RzQa2aSpql6vvBCNrq9ZsV2FJkVXa2RkhJGREaqqqujrO0ZHezt6vZJymkwmCYfDjD9+zO3bt1lefpmpsJR5Dnma0en0dHZ05OxD2blPKvr6epmdm2N4+EqexdfGu1ZV/6LRKIODQ1y//hVudwOVlZUZflUikSSVSuL3L/P8+XOi0Sg6nTatLyrkuLSaRppkbvYFhcBms3FioJ+5uVkmJ6e2OTrdWHofRpnhZBYXF5mfn2dwcGjj0WnjFTV5ZtEygslkWuc2bddhhcumFbUgyLxcfslnn33OZ599jtFoxGg0Zkp5ARma+Ku9iRzNqIozssSBA7W43e6cPSg790mF3W7n5z/7KU+fPkuL8hZOTVd3RBPxBE+eTGQNz6kGpNfrt9r1llt6pXat0xceHWltbeGjj77HhQt/4MWLQoxJbVgZ5tRa3xv7sc5VKW+uXwaKXKqZcDhc+HtMz84aUUAvKu6jJEmZnAi9Ppu0aT41BCWUr9Vqee/ddzl4sD7noWWzeZcNer2ef/2Xf8bj8RR1vqBRjEOVRFn/Z4PIVl67Vpm4AlVVlbyzrgpsIeg6fJgPP3g/Tf4ruOfb/FzZxPxrmCUAnE4HJ0++s046tRhrzjJyCYVeRzlOkiQG+o9vqxhf1kYB0NBwkE/O/5Dm5kOIovgaKOIq1NFYGZkdjgpOnBigvb1tR1fRarX09Bzl3XfP4HLVrFsMr2vjW4NcVGJ/MThz+hTvnj2bDlLkE6fIhWwjQCGjgqxw5iQJj8dTUDnqslxor4cgCHR0dGA2m/mfz//EvXv30/UbKKgWwc7xSudVrZFwoPYAZ8+eZqC/OJ6S0WhUNJ60Oi4NDvLixUKmBsWeBYtkJbk3bxuy8FqSnUDRfXr//feoqzvAlSvXeDT+6NXCeM8CZjKyrKzRal3V/OynP6Gurm7bs/K+YcXN2H4k0WgEdEVsOhUKQRBobGzkJ3/7Y3Q6PY/GxohEIiRTKeVZltI4ZAEZCUHWYDQacFVX88kn52lra90Vcc9oNNLffxyHw8EXFy8yPe1VojKylNlh3dU9bDpfl6a2x2MxUpK09QBe/VdlpGaDIAhoRBFRVPO9c3dUFMW0al/231ssFvr6+mhtbeM/fvUrXrxYIBaNbaB/l8RC0sJ5SjhbR3t7G+c+/jhvYtGG+/jlL3/57zl/KYqMjY0rRUFUZOlvVVUVJ995m6qqvctvUMQRTLS2tmAym0kkksRjMZKpFJKcyhyzM2x8AZIkIWiUrL4DB2rp6enh73/+c9zuhpK4GRqNJq1N1IhWq01rpCYzheUz8fUibkNOu2I6nQ6Hw8Hhw9+hra2V1UAgvTjNEo5Jl87q7Oykt7cna5RPEASSiQRer5f5+YWcuSKyLON2N3C0u5vKSmfed2E0GjkxMIDZYlH2XZJJEonElhTjYqD0T9nvqqx0cuxYLz84d466usIK3sM2RqHVakmmkkxNTSraQZtGAFmWMZlMHD/ex4kTA3vun6rMyEa3m4Z0REPQCKSSKWKx+KuHipAZKbaDLL9yk+x2G/X19Rzp6uLds2c43te3K9meXLDZbHg8TdTW1GAymTLVZcPhcEapvKBRU+07MkajkZoaF60trbx9YoBTp07S1trKy5creL3eV+7aOkiSjNVq5W8++m7eEKUgCIQjYbzeGaKRcPo7eHUtVTa1p6eHzo6Oguj8giDgdjfgdrsVvpJGRCOKxGKxDTpV25FD1fZlWSaZTGI0GqmvO0Dndzo5+c7bnDr5DhUVO0v7FSKRSN4VTzAY5OKXg1y6dGlLVUmz2cyRI12c+/j7u6JXFANZVtQCfb4lvF4vDx6O4Z2eZjVNNttcPFE5iXTQRnG3RFGZ6i0WM02NTbS2tuDxeHC5qndFztsJgsEgfr+fsUfj3L1zF7/fTyQaTTM5c2tIqeFarVZLdVUVbW2ttLa2UldXh9PpyIz6k5OT/OevP2VqanrLMzGZTJw5fZpz576f1zVUWcmXBof4+usbRCPRzMwEysh/5EgX3/3wQxoaDu54pI/H46ysrLK0tMSDhw95/vw5i4sLxGKJdcU95S0iDOrMqhE1GAyKq9vW3kZnRwd1dXVUVNiLGqi3NQqAYDDE0NAQU1OTRKPKiGy1WnG7G+jt7c1b++11QJZlAoEAT55MMDs7SzAUUirnJJKkUimSqSSypERalBCtFp1Oj9VmxWq14nJVc7S7O6Nk/W0gmVQ2FO/fv08gEEzfw0uSyRTJZBIppdA4RK2IXq/DbLJgt9uxV9g55PHgdrsxGLILJzx8OMbd0VGWfD4iESU7zWK1cOjQIc6cPpU10SYbFhYWuXHjBjOzc4TX1khJKUwmI43uRnr7eqmvq9u165NMJnn58iWj9+6xsrJKKBhSROYScRKJJLKkVMrVakV0Oi1Gg5GKigoqHA66Dh/G5apGp9Ptqh8FGYWK+fl5wuEIkpRSOlJRsWc5xsVCkiSi0SjBYIh4PJZR75MkGVEU0el06PU69HoDJpMRk8lUdjRrWVZk/tfWlMqf8Xgi4/7odDoMBgMmkwmz2VTw8w+Hw6ysrBAKraUp1g6czvy+fzaovKvV1UCmsKLTWYnRWPrvIJlMsra2RiQSJRaLEo8nMqW69Hplv8lsNmO1Wks6mO3IKPaxj/8PKPvNu33s43Vj3yj2sY9N2DeKfexjE/aNYh/72IR9o9jHPjZh3yj2sY9N+F94IvGHtg0mBAAAAABJRU5ErkJggg==;" vertex="1" parent="1">
          <mxGeometry x="398.43" y="1400" width="123.13" height="110" as="geometry" />
        </mxCell>
        <mxCell id="wu-v3GwsSAGnacMAZzud-22" value="1. redis 조회" style="text;html=1;align=center;verticalAlign=middle;resizable=0;points=[];autosize=1;strokeColor=none;fillColor=none;" vertex="1" parent="1">
          <mxGeometry x="460" y="1350" width="90" height="30" as="geometry" />
        </mxCell>
        <mxCell id="wu-v3GwsSAGnacMAZzud-24" value="2. db 조회 후&amp;nbsp;&lt;br&gt;redis 에 저장" style="text;html=1;align=center;verticalAlign=middle;resizable=0;points=[];autosize=1;strokeColor=none;fillColor=none;" vertex="1" parent="1">
          <mxGeometry x="570" y="1280" width="100" height="40" as="geometry" />
        </mxCell>
      </root>
    </mxGraphModel>
  </diagram>
</mxfile>
